<?xml version="1.0" encoding="utf-8"?>
<!-- Generator: Adobe Illustrator 24.1.0, SVG Export Plug-In . SVG Version: 6.00 Build 0)  -->
<!DOCTYPE svg PUBLIC "-//W3C//DTD SVG 1.1//EN" "http://www.w3.org/Graphics/SVG/1.1/DTD/svg11.dtd" [
	<!ENTITY ns_extend "http://ns.adobe.com/Extensibility/1.0/">
	<!ENTITY ns_ai "http://ns.adobe.com/AdobeIllustrator/10.0/">
	<!ENTITY ns_graphs "http://ns.adobe.com/Graphs/1.0/">
	<!ENTITY ns_vars "http://ns.adobe.com/Variables/1.0/">
	<!ENTITY ns_imrep "http://ns.adobe.com/ImageReplacement/1.0/">
	<!ENTITY ns_sfw "http://ns.adobe.com/SaveForWeb/1.0/">
	<!ENTITY ns_custom "http://ns.adobe.com/GenericCustomNamespace/1.0/">
	<!ENTITY ns_adobe_xpath "http://ns.adobe.com/XPath/1.0/">
]>
<svg version="1.1" xmlns:x="&ns_extend;" xmlns:i="&ns_ai;" xmlns:graph="&ns_graphs;"
	 xmlns="http://www.w3.org/2000/svg" xmlns:xlink="http://www.w3.org/1999/xlink" x="0px" y="0px" viewBox="0 0 750 750"
	 enable-background="new 0 0 750 750" xml:space="preserve">
<metadata>
	<sfw  xmlns="&ns_sfw;">
		<slices></slices>
		<sliceSourceBounds  bottomLeftOrigin="true" height="13783.691" width="4411.17" x="-4449.17" y="-5022"></sliceSourceBounds>
	</sfw>
</metadata>
<g id="FILL-BACKGROUND">
	<rect y="0" fill="#FFFFFF" width="750" height="750"/>
</g>
<g id="N-DIMENSIONS">
</g>
<g id="N-TEXT">
</g>
<g id="AG-DIAGRAM">
	<g id="POLYLINE_653_">
		<g>
			<g>
				
					<line fill="none" stroke="#00B9D2" stroke-width="3.25" stroke-linecap="round" stroke-linejoin="round" x1="95.235" y1="543.267" x2="97.235" y2="543.267"/>
				
					<line fill="none" stroke="#00B9D2" stroke-width="3.25" stroke-linecap="round" stroke-linejoin="round" stroke-dasharray="3.9894,6.9815" x1="104.217" y1="543.267" x2="649.274" y2="543.267"/>
				
					<line fill="none" stroke="#00B9D2" stroke-width="3.25" stroke-linecap="round" stroke-linejoin="round" x1="652.765" y1="543.267" x2="654.765" y2="543.267"/>
			</g>
		</g>
	</g>
</g>
<g id="AG-DETAIL-DIAGRAM">
</g>
<g id="AG-DETAILS">
	<g id="POLYLINE_90_">
		
			<polygon fill="none" stroke="#00B9D2" stroke-width="2" stroke-linecap="round" stroke-linejoin="round" stroke-miterlimit="10" points="
			577.254,227.352 577.254,227.29 577.253,227.227 577.251,227.163 577.249,227.1 577.245,227.036 577.241,226.972 577.237,226.908 
			577.231,226.843 577.225,226.779 577.218,226.714 577.21,226.649 577.202,226.584 577.193,226.518 577.182,226.453 
			577.171,226.387 577.16,226.322 577.147,226.256 577.134,226.19 577.119,226.124 577.104,226.058 577.088,225.992 
			577.072,225.926 577.054,225.86 577.036,225.794 577.016,225.728 576.996,225.662 576.975,225.596 576.953,225.53 576.93,225.464 
			576.907,225.398 576.882,225.333 576.857,225.267 576.83,225.202 576.803,225.137 576.775,225.072 576.746,225.007 
			576.716,224.943 576.685,224.879 576.654,224.815 576.621,224.751 576.588,224.687 576.554,224.624 576.519,224.562 
			576.483,224.499 576.446,224.437 576.409,224.375 576.37,224.314 576.331,224.253 576.291,224.192 576.25,224.132 
			576.208,224.073 576.166,224.014 576.122,223.955 576.078,223.897 576.033,223.839 575.988,223.782 575.941,223.726 
			575.894,223.67 575.846,223.615 575.797,223.56 575.748,223.506 575.698,223.452 575.647,223.4 575.595,223.347 575.543,223.296 
			575.49,223.245 575.437,223.195 575.383,223.145 575.328,223.097 575.273,223.049 575.217,223.002 575.16,222.955 
			575.103,222.909 575.046,222.865 574.988,222.82 574.929,222.777 574.87,222.734 574.81,222.693 574.75,222.652 574.69,222.612 
			574.629,222.572 574.567,222.534 574.506,222.496 574.444,222.46 574.381,222.424 574.318,222.389 574.255,222.354 
			574.192,222.321 574.128,222.289 574.064,222.257 574,222.226 573.935,222.197 573.871,222.168 573.806,222.14 573.741,222.112 
			573.675,222.086 573.61,222.061 573.544,222.036 573.479,222.012 573.413,221.99 573.347,221.968 573.281,221.947 
			573.215,221.926 573.149,221.907 573.083,221.889 573.017,221.871 572.951,221.854 572.885,221.838 572.819,221.823 
			572.753,221.809 572.687,221.796 572.621,221.783 572.555,221.771 572.49,221.76 572.424,221.75 572.359,221.741 572.294,221.732 
			572.229,221.725 572.164,221.718 572.099,221.711 572.035,221.706 571.971,221.701 571.907,221.697 571.843,221.694 
			571.779,221.692 571.716,221.69 571.653,221.689 571.59,221.688 571.528,221.689 571.465,221.69 571.401,221.692 571.338,221.694 
			571.274,221.697 571.21,221.701 571.146,221.706 571.081,221.711 571.017,221.718 570.952,221.725 570.887,221.732 
			570.822,221.741 570.757,221.75 570.691,221.76 570.626,221.771 570.56,221.783 570.494,221.796 570.428,221.809 570.362,221.823 
			570.296,221.838 570.23,221.854 570.164,221.871 570.098,221.889 570.032,221.907 569.966,221.926 569.9,221.947 569.834,221.968 
			569.768,221.99 569.702,222.012 569.637,222.036 569.571,222.061 569.506,222.086 569.44,222.112 569.375,222.14 569.31,222.168 
			569.246,222.197 569.181,222.226 569.117,222.257 569.053,222.289 568.989,222.321 568.926,222.354 568.862,222.389 
			568.8,222.424 568.737,222.46 568.675,222.496 568.613,222.534 568.552,222.572 568.491,222.612 568.431,222.652 568.371,222.693 
			568.311,222.734 568.252,222.777 568.193,222.82 568.135,222.865 568.078,222.909 568.021,222.955 567.964,223.002 
			567.908,223.049 567.853,223.097 567.798,223.145 567.744,223.195 567.691,223.245 567.638,223.296 567.586,223.347 
			567.534,223.4 567.483,223.452 567.433,223.506 567.384,223.56 567.335,223.615 567.287,223.67 567.24,223.726 567.193,223.782 
			567.148,223.839 567.103,223.897 567.059,223.955 567.015,224.014 566.973,224.073 566.931,224.132 566.89,224.192 
			566.85,224.253 566.811,224.314 566.772,224.375 566.735,224.437 566.698,224.499 566.662,224.562 566.627,224.624 
			566.593,224.687 566.559,224.751 566.527,224.815 566.495,224.879 566.465,224.943 566.435,225.007 566.406,225.072 
			566.378,225.137 566.351,225.202 566.324,225.267 566.299,225.333 566.274,225.398 566.251,225.464 566.228,225.53 
			566.206,225.596 566.185,225.662 566.165,225.728 566.145,225.794 566.127,225.86 566.109,225.926 566.092,225.992 
			566.076,226.058 566.061,226.124 566.047,226.19 566.034,226.256 566.021,226.322 566.009,226.387 565.998,226.453 
			565.988,226.518 565.979,226.584 565.971,226.649 565.963,226.714 565.956,226.779 565.95,226.843 565.944,226.908 
			565.939,226.972 565.935,227.036 565.932,227.1 565.93,227.163 565.928,227.227 565.927,227.29 565.927,227.352 565.927,227.415 
			565.928,227.478 565.93,227.541 565.932,227.605 565.935,227.668 565.939,227.732 565.944,227.797 565.95,227.861 
			565.956,227.926 565.963,227.991 565.971,228.056 565.979,228.121 565.988,228.186 565.998,228.252 566.009,228.317 
			566.021,228.383 566.034,228.449 566.047,228.514 566.061,228.58 566.076,228.646 566.092,228.712 566.109,228.779 
			566.127,228.845 566.145,228.911 566.165,228.977 566.185,229.043 566.206,229.109 566.228,229.175 566.251,229.24 
			566.274,229.306 566.299,229.372 566.324,229.437 566.351,229.502 566.378,229.567 566.406,229.632 566.435,229.697 
			566.465,229.762 566.495,229.826 566.527,229.89 566.559,229.954 566.593,230.017 566.627,230.08 566.662,230.143 
			566.698,230.205 566.735,230.268 566.772,230.329 566.811,230.391 566.85,230.452 566.89,230.512 566.931,230.572 
			566.973,230.632 567.015,230.691 567.059,230.749 567.103,230.807 567.148,230.865 567.193,230.922 567.24,230.979 
			567.287,231.035 567.335,231.09 567.384,231.145 567.433,231.199 567.483,231.252 567.534,231.305 567.586,231.357 
			567.638,231.409 567.691,231.459 567.744,231.51 567.798,231.559 567.853,231.608 567.908,231.656 567.964,231.703 
			568.021,231.749 568.078,231.795 568.135,231.84 568.193,231.884 568.252,231.927 568.311,231.97 568.371,232.012 
			568.431,232.053 568.491,232.093 568.552,232.132 568.613,232.171 568.675,232.208 568.737,232.245 568.8,232.281 
			568.862,232.316 568.926,232.35 568.989,232.383 569.053,232.416 569.117,232.447 569.181,232.478 569.246,232.508 
			569.31,232.537 569.375,232.565 569.44,232.592 569.506,232.618 569.571,232.644 569.637,232.668 569.702,232.692 
			569.768,232.715 569.834,232.737 569.9,232.758 569.966,232.778 570.032,232.797 570.098,232.816 570.164,232.833 570.23,232.85 
			570.296,232.866 570.362,232.881 570.428,232.895 570.494,232.909 570.56,232.921 570.626,232.933 570.691,232.944 
			570.757,232.954 570.822,232.964 570.887,232.972 570.952,232.98 571.017,232.987 571.081,232.993 571.146,232.999 
			571.21,233.003 571.274,233.007 571.338,233.01 571.401,233.013 571.465,233.015 571.528,233.016 571.59,233.016 571.653,233.016 
			571.716,233.015 571.779,233.013 571.843,233.01 571.907,233.007 571.971,233.003 572.035,232.999 572.099,232.993 
			572.164,232.987 572.229,232.98 572.294,232.972 572.359,232.964 572.424,232.954 572.49,232.944 572.555,232.933 
			572.621,232.921 572.687,232.909 572.753,232.895 572.819,232.881 572.885,232.866 572.951,232.85 573.017,232.833 
			573.083,232.816 573.149,232.797 573.215,232.778 573.281,232.758 573.347,232.737 573.413,232.715 573.479,232.692 
			573.544,232.668 573.61,232.644 573.675,232.618 573.741,232.592 573.806,232.565 573.871,232.537 573.935,232.508 574,232.478 
			574.064,232.447 574.128,232.416 574.192,232.383 574.255,232.35 574.318,232.316 574.381,232.281 574.444,232.245 
			574.506,232.208 574.567,232.171 574.629,232.132 574.69,232.093 574.75,232.053 574.81,232.012 574.87,231.97 574.929,231.927 
			574.988,231.884 575.046,231.84 575.103,231.795 575.16,231.749 575.217,231.703 575.273,231.656 575.328,231.608 
			575.383,231.559 575.437,231.51 575.49,231.459 575.543,231.409 575.595,231.357 575.647,231.305 575.698,231.252 
			575.748,231.199 575.797,231.145 575.846,231.09 575.894,231.035 575.941,230.979 575.988,230.922 576.033,230.865 
			576.078,230.807 576.122,230.749 576.166,230.691 576.208,230.632 576.25,230.572 576.291,230.512 576.331,230.452 
			576.37,230.391 576.409,230.329 576.446,230.268 576.483,230.205 576.519,230.143 576.554,230.08 576.588,230.017 
			576.621,229.954 576.654,229.89 576.685,229.826 576.716,229.762 576.746,229.697 576.775,229.632 576.803,229.567 
			576.83,229.502 576.857,229.437 576.882,229.372 576.907,229.306 576.93,229.24 576.953,229.175 576.975,229.109 576.996,229.043 
			577.016,228.977 577.036,228.911 577.054,228.845 577.072,228.779 577.088,228.712 577.104,228.646 577.119,228.58 
			577.134,228.514 577.147,228.449 577.16,228.383 577.171,228.317 577.182,228.252 577.193,228.186 577.202,228.121 
			577.21,228.056 577.218,227.991 577.225,227.926 577.231,227.861 577.237,227.797 577.241,227.732 577.245,227.668 
			577.249,227.605 577.251,227.541 577.253,227.478 577.254,227.415 		"/>
	</g>
</g>
<g id="AG-DIGITAL">
	<g id="POLYLINE_53_">
		
			<polygon fill="none" stroke="#00B9D2" stroke-width="2.75" stroke-linecap="round" stroke-linejoin="round" stroke-miterlimit="10" points="
			149.608,518.972 149.264,518.97 148.918,518.965 148.572,518.955 148.223,518.941 147.873,518.924 147.522,518.902 
			147.17,518.877 146.817,518.847 146.462,518.813 146.107,518.774 145.75,518.732 145.393,518.685 145.035,518.634 
			144.676,518.578 144.316,518.518 143.956,518.454 143.595,518.385 143.234,518.311 142.872,518.233 142.51,518.151 
			142.148,518.063 141.786,517.971 141.423,517.875 141.061,517.773 140.699,517.667 140.337,517.557 139.975,517.441 
			139.614,517.321 139.253,517.196 138.893,517.066 138.533,516.931 138.174,516.791 137.816,516.647 137.459,516.498 
			137.103,516.344 136.748,516.185 136.394,516.022 136.042,515.853 135.691,515.68 135.341,515.502 134.993,515.32 
			134.647,515.132 134.303,514.94 133.96,514.743 133.619,514.542 133.281,514.335 132.944,514.125 132.61,513.909 132.279,513.689 
			131.949,513.465 131.622,513.236 131.298,513.002 130.977,512.765 130.658,512.522 130.342,512.276 130.029,512.025 
			129.72,511.771 129.413,511.512 129.11,511.249 128.81,510.982 128.513,510.711 128.219,510.436 127.93,510.157 127.644,509.874 
			127.361,509.588 127.082,509.299 126.808,509.005 126.537,508.709 126.269,508.408 126.006,508.105 125.747,507.798 
			125.493,507.489 125.242,507.176 124.996,506.86 124.753,506.541 124.516,506.22 124.282,505.896 124.053,505.569 
			123.829,505.239 123.609,504.908 123.394,504.574 123.183,504.237 122.977,503.899 122.775,503.558 122.578,503.215 
			122.386,502.871 122.199,502.525 122.016,502.177 121.838,501.827 121.665,501.476 121.496,501.124 121.333,500.77 
			121.174,500.415 121.02,500.059 120.871,499.702 120.727,499.344 120.587,498.985 120.452,498.625 120.323,498.265 
			120.197,497.904 120.077,497.543 119.962,497.181 119.851,496.819 119.745,496.457 119.643,496.095 119.547,495.733 
			119.455,495.37 119.368,495.008 119.285,494.646 119.207,494.284 119.133,493.923 119.064,493.562 119,493.202 118.94,492.842 
			118.884,492.483 118.833,492.125 118.786,491.768 118.744,491.411 118.705,491.056 118.671,490.701 118.641,490.348 
			118.616,489.996 118.594,489.645 118.577,489.295 118.563,488.947 118.553,488.6 118.548,488.254 118.546,487.91 118.546,243.812 
			118.548,243.468 118.553,243.122 118.563,242.775 118.577,242.427 118.594,242.077 118.616,241.726 118.641,241.374 
			118.671,241.021 118.705,240.666 118.744,240.311 118.786,239.954 118.833,239.597 118.884,239.239 118.94,238.88 119,238.52 
			119.064,238.16 119.133,237.799 119.207,237.437 119.285,237.076 119.368,236.714 119.455,236.352 119.547,235.989 
			119.643,235.627 119.745,235.265 119.851,234.903 119.962,234.541 120.077,234.179 120.197,233.818 120.323,233.457 
			120.452,233.096 120.587,232.737 120.727,232.378 120.871,232.02 121.02,231.663 121.174,231.307 121.333,230.952 
			121.496,230.598 121.665,230.246 121.838,229.895 122.016,229.545 122.199,229.197 122.386,228.851 122.578,228.506 
			122.775,228.164 122.977,227.823 123.183,227.485 123.394,227.148 123.609,226.814 123.829,226.482 124.053,226.153 
			124.282,225.826 124.516,225.502 124.753,225.181 124.996,224.862 125.242,224.546 125.493,224.233 125.747,223.924 
			126.006,223.617 126.269,223.313 126.537,223.013 126.808,222.717 127.082,222.423 127.361,222.134 127.644,221.847 
			127.93,221.565 128.219,221.286 128.513,221.011 128.81,220.74 129.11,220.473 129.413,220.21 129.72,219.951 130.029,219.697 
			130.342,219.446 130.658,219.199 130.977,218.957 131.298,218.72 131.622,218.486 131.949,218.257 132.279,218.033 
			132.61,217.813 132.944,217.597 133.281,217.387 133.619,217.18 133.96,216.979 134.303,216.782 134.647,216.59 134.993,216.402 
			135.341,216.22 135.691,216.042 136.042,215.869 136.394,215.7 136.748,215.537 137.103,215.378 137.459,215.224 137.816,215.075 
			138.174,214.93 138.533,214.791 138.893,214.656 139.253,214.526 139.614,214.401 139.975,214.281 140.337,214.165 
			140.699,214.055 141.061,213.949 141.423,213.847 141.786,213.751 142.148,213.659 142.51,213.571 142.872,213.489 
			143.234,213.411 143.595,213.337 143.956,213.268 144.316,213.204 144.676,213.144 145.035,213.088 145.393,213.037 
			145.75,212.99 146.107,212.947 146.462,212.909 146.817,212.875 147.17,212.845 147.522,212.82 147.873,212.798 148.223,212.78 
			148.572,212.767 148.918,212.757 149.264,212.751 149.608,212.75 600.392,212.75 600.736,212.751 601.082,212.757 
			601.428,212.767 601.777,212.78 602.127,212.798 602.478,212.82 602.83,212.845 603.183,212.875 603.538,212.909 603.893,212.947 
			604.25,212.99 604.607,213.037 604.965,213.088 605.324,213.144 605.684,213.204 606.044,213.268 606.405,213.337 
			606.766,213.411 607.128,213.489 607.49,213.571 607.852,213.659 608.214,213.751 608.577,213.847 608.939,213.949 
			609.301,214.055 609.663,214.165 610.025,214.281 610.386,214.401 610.747,214.526 611.107,214.656 611.467,214.791 
			611.826,214.93 612.184,215.075 612.541,215.224 612.897,215.378 613.252,215.537 613.606,215.7 613.958,215.869 614.309,216.042 
			614.659,216.22 615.007,216.402 615.353,216.59 615.697,216.782 616.04,216.979 616.381,217.18 616.719,217.387 617.056,217.597 
			617.39,217.813 617.721,218.033 618.051,218.257 618.378,218.486 618.702,218.72 619.023,218.957 619.342,219.199 
			619.658,219.446 619.971,219.697 620.28,219.951 620.587,220.21 620.89,220.473 621.19,220.74 621.487,221.011 621.781,221.286 
			622.07,221.565 622.356,221.847 622.639,222.134 622.918,222.423 623.192,222.717 623.463,223.013 623.731,223.313 
			623.994,223.617 624.253,223.924 624.507,224.233 624.758,224.546 625.004,224.862 625.247,225.181 625.484,225.502 
			625.718,225.826 625.947,226.153 626.171,226.482 626.391,226.814 626.606,227.148 626.817,227.485 627.023,227.823 
			627.225,228.164 627.422,228.506 627.614,228.851 627.801,229.197 627.984,229.545 628.162,229.895 628.335,230.246 
			628.504,230.598 628.667,230.952 628.826,231.307 628.98,231.663 629.129,232.02 629.273,232.378 629.413,232.737 
			629.548,233.096 629.677,233.457 629.803,233.818 629.923,234.179 630.038,234.541 630.149,234.903 630.255,235.265 
			630.357,235.627 630.453,235.989 630.545,236.352 630.633,236.714 630.715,237.076 630.793,237.437 630.867,237.799 
			630.936,238.16 631,238.52 631.06,238.88 631.116,239.239 631.167,239.597 631.214,239.954 631.256,240.311 631.295,240.666 
			631.329,241.021 631.359,241.374 631.384,241.726 631.406,242.077 631.423,242.427 631.437,242.775 631.447,243.122 
			631.452,243.468 631.454,243.812 631.454,487.91 631.452,488.254 631.447,488.6 631.437,488.947 631.423,489.295 631.406,489.645 
			631.384,489.996 631.359,490.348 631.329,490.701 631.295,491.056 631.256,491.411 631.214,491.768 631.167,492.125 
			631.116,492.483 631.06,492.842 631,493.202 630.936,493.562 630.867,493.923 630.793,494.284 630.715,494.646 630.633,495.008 
			630.545,495.37 630.453,495.733 630.357,496.095 630.255,496.457 630.149,496.819 630.038,497.181 629.923,497.543 
			629.803,497.904 629.677,498.265 629.548,498.625 629.413,498.985 629.273,499.344 629.129,499.702 628.98,500.059 
			628.826,500.415 628.667,500.77 628.504,501.124 628.335,501.476 628.162,501.827 627.984,502.177 627.801,502.525 
			627.614,502.871 627.422,503.215 627.225,503.558 627.023,503.899 626.817,504.237 626.606,504.574 626.391,504.908 
			626.171,505.239 625.947,505.569 625.718,505.896 625.484,506.22 625.247,506.541 625.004,506.86 624.758,507.176 
			624.507,507.489 624.253,507.798 623.994,508.105 623.731,508.408 623.463,508.709 623.192,509.005 622.918,509.299 
			622.639,509.588 622.356,509.874 622.07,510.157 621.781,510.436 621.487,510.711 621.19,510.982 620.89,511.249 620.587,511.512 
			620.28,511.771 619.971,512.025 619.658,512.276 619.342,512.522 619.023,512.765 618.702,513.002 618.378,513.236 
			618.051,513.465 617.721,513.689 617.39,513.909 617.056,514.125 616.719,514.335 616.381,514.542 616.04,514.743 615.697,514.94 
			615.353,515.132 615.007,515.32 614.659,515.502 614.309,515.68 613.958,515.853 613.606,516.022 613.252,516.185 
			612.897,516.344 612.541,516.498 612.184,516.647 611.826,516.791 611.467,516.931 611.107,517.066 610.747,517.196 
			610.386,517.321 610.025,517.441 609.663,517.557 609.301,517.667 608.939,517.773 608.577,517.875 608.214,517.971 
			607.852,518.063 607.49,518.151 607.128,518.233 606.766,518.311 606.405,518.385 606.044,518.454 605.684,518.518 
			605.324,518.578 604.965,518.634 604.607,518.685 604.25,518.732 603.893,518.774 603.538,518.813 603.183,518.847 
			602.83,518.877 602.478,518.902 602.127,518.924 601.777,518.941 601.428,518.955 601.082,518.965 600.736,518.97 
			600.392,518.972 		"/>
	</g>
	<g id="POLYLINE_54_">
		
			<polygon fill="none" stroke="#00B9D2" stroke-width="2.75" stroke-linecap="round" stroke-linejoin="round" stroke-miterlimit="10" points="
			149.608,524.989 149.197,524.986 148.785,524.98 148.371,524.968 147.955,524.952 147.538,524.931 147.119,524.905 
			146.698,524.874 146.276,524.839 145.853,524.798 145.429,524.752 145.003,524.702 144.577,524.646 144.149,524.585 
			143.72,524.518 143.291,524.447 142.861,524.37 142.43,524.287 141.999,524.2 141.567,524.106 141.135,524.008 140.703,523.904 
			140.27,523.794 139.838,523.678 139.405,523.557 138.973,523.431 138.541,523.299 138.109,523.161 137.678,523.017 
			137.247,522.868 136.817,522.713 136.388,522.552 135.959,522.385 135.532,522.213 135.106,522.035 134.681,521.851 
			134.257,521.662 133.835,521.467 133.414,521.266 132.995,521.059 132.578,520.846 132.163,520.628 131.749,520.405 
			131.338,520.175 130.929,519.94 130.523,519.7 130.119,519.454 129.717,519.202 129.318,518.945 128.922,518.682 128.529,518.414 
			128.139,518.141 127.752,517.862 127.368,517.579 126.988,517.29 126.611,516.995 126.237,516.696 125.868,516.392 
			125.502,516.083 125.139,515.769 124.781,515.45 124.427,515.127 124.077,514.799 123.731,514.466 123.389,514.129 
			123.052,513.787 122.72,513.441 122.391,513.091 122.068,512.737 121.749,512.379 121.435,512.017 121.126,511.65 
			120.822,511.281 120.523,510.907 120.229,510.53 119.939,510.15 119.656,509.766 119.377,509.379 119.104,508.989 
			118.836,508.596 118.573,508.2 118.316,507.801 118.065,507.4 117.818,506.995 117.578,506.589 117.343,506.18 117.113,505.769 
			116.89,505.355 116.672,504.94 116.459,504.523 116.252,504.104 116.052,503.683 115.856,503.261 115.667,502.837 
			115.483,502.412 115.305,501.986 115.133,501.559 114.966,501.13 114.805,500.701 114.65,500.271 114.501,499.84 114.357,499.409 
			114.219,498.977 114.087,498.545 113.961,498.113 113.84,497.68 113.724,497.248 113.615,496.815 113.51,496.383 113.412,495.951 
			113.318,495.519 113.231,495.088 113.148,494.657 113.071,494.227 113,493.798 112.933,493.369 112.872,492.942 112.816,492.515 
			112.766,492.089 112.72,491.665 112.679,491.242 112.644,490.82 112.613,490.4 112.587,489.981 112.566,489.563 112.55,489.147 
			112.538,488.733 112.532,488.321 112.529,487.91 112.529,243.812 112.532,243.401 112.538,242.989 112.55,242.575 
			112.566,242.159 112.587,241.741 112.613,241.322 112.644,240.902 112.679,240.48 112.72,240.057 112.766,239.633 
			112.816,239.207 112.872,238.78 112.933,238.353 113,237.924 113.071,237.495 113.148,237.065 113.231,236.634 113.318,236.203 
			113.412,235.771 113.51,235.339 113.615,234.907 113.724,234.474 113.84,234.042 113.961,233.609 114.087,233.177 
			114.219,232.745 114.357,232.313 114.501,231.882 114.65,231.451 114.805,231.021 114.966,230.592 115.133,230.163 
			115.305,229.736 115.483,229.31 115.667,228.885 115.856,228.461 116.052,228.039 116.252,227.618 116.459,227.199 
			116.672,226.782 116.89,226.366 117.113,225.953 117.343,225.542 117.578,225.133 117.818,224.726 118.065,224.322 
			118.316,223.921 118.573,223.522 118.836,223.126 119.104,222.733 119.377,222.343 119.656,221.956 119.939,221.572 
			120.229,221.192 120.523,220.815 120.822,220.441 121.126,220.071 121.435,219.705 121.749,219.343 122.068,218.985 
			122.391,218.631 122.72,218.281 123.052,217.935 123.389,217.593 123.731,217.256 124.077,216.923 124.427,216.595 
			124.781,216.272 125.139,215.953 125.502,215.639 125.868,215.33 126.237,215.026 126.611,214.726 126.988,214.432 
			127.368,214.143 127.752,213.86 128.139,213.581 128.529,213.308 128.922,213.04 129.318,212.777 129.717,212.52 130.119,212.268 
			130.523,212.022 130.929,211.782 131.338,211.547 131.749,211.317 132.163,211.094 132.578,210.875 132.995,210.663 
			133.414,210.456 133.835,210.255 134.257,210.06 134.681,209.871 135.106,209.687 135.532,209.509 135.959,209.337 
			136.388,209.17 136.817,209.009 137.247,208.854 137.678,208.705 138.109,208.561 138.541,208.423 138.973,208.291 
			139.405,208.164 139.838,208.043 140.27,207.928 140.703,207.818 141.135,207.714 141.567,207.615 141.999,207.522 
			142.43,207.435 142.861,207.352 143.291,207.275 143.72,207.204 144.149,207.137 144.577,207.076 145.003,207.02 145.429,206.969 
			145.853,206.924 146.276,206.883 146.698,206.848 147.119,206.817 147.538,206.791 147.955,206.77 148.371,206.754 
			148.785,206.742 149.197,206.735 149.608,206.733 600.392,206.733 600.803,206.735 601.215,206.742 601.629,206.754 
			602.045,206.77 602.463,206.791 602.881,206.817 603.302,206.848 603.724,206.883 604.147,206.924 604.571,206.969 
			604.997,207.02 605.423,207.076 605.851,207.137 606.28,207.204 606.709,207.275 607.139,207.352 607.57,207.435 608.001,207.522 
			608.433,207.615 608.865,207.714 609.297,207.818 609.73,207.928 610.162,208.043 610.595,208.164 611.027,208.291 
			611.459,208.423 611.891,208.561 612.322,208.705 612.753,208.854 613.183,209.009 613.612,209.17 614.041,209.337 
			614.468,209.509 614.894,209.687 615.319,209.871 615.743,210.06 616.165,210.255 616.586,210.456 617.005,210.663 
			617.422,210.875 617.837,211.094 618.251,211.317 618.662,211.547 619.071,211.782 619.477,212.022 619.881,212.268 
			620.283,212.52 620.682,212.777 621.078,213.04 621.471,213.308 621.861,213.581 622.248,213.86 622.632,214.143 623.012,214.432 
			623.389,214.726 623.763,215.026 624.132,215.33 624.498,215.639 624.861,215.953 625.219,216.272 625.573,216.595 
			625.923,216.923 626.269,217.256 626.611,217.593 626.948,217.935 627.28,218.281 627.609,218.631 627.932,218.985 
			628.251,219.343 628.565,219.705 628.874,220.071 629.178,220.441 629.477,220.815 629.771,221.192 630.06,221.572 
			630.344,221.956 630.623,222.343 630.896,222.733 631.164,223.126 631.427,223.522 631.684,223.921 631.935,224.322 
			632.182,224.726 632.422,225.133 632.657,225.542 632.887,225.953 633.11,226.366 633.328,226.782 633.541,227.199 
			633.747,227.618 633.948,228.039 634.144,228.461 634.333,228.885 634.517,229.31 634.695,229.736 634.867,230.163 
			635.034,230.592 635.195,231.021 635.35,231.451 635.499,231.882 635.643,232.313 635.781,232.745 635.913,233.177 
			636.039,233.609 636.16,234.042 636.276,234.474 636.385,234.907 636.49,235.339 636.588,235.771 636.682,236.203 
			636.769,236.634 636.852,237.065 636.929,237.495 637,237.924 637.067,238.353 637.128,238.78 637.184,239.207 637.234,239.633 
			637.28,240.057 637.321,240.48 637.356,240.902 637.387,241.322 637.413,241.741 637.434,242.159 637.45,242.575 637.462,242.989 
			637.468,243.401 637.471,243.812 637.471,487.91 637.468,488.321 637.462,488.733 637.45,489.147 637.434,489.563 
			637.413,489.981 637.387,490.4 637.356,490.82 637.321,491.242 637.28,491.665 637.234,492.089 637.184,492.515 637.128,492.942 
			637.067,493.369 637,493.798 636.929,494.227 636.852,494.657 636.769,495.088 636.682,495.519 636.588,495.951 636.49,496.383 
			636.385,496.815 636.276,497.248 636.16,497.68 636.039,498.113 635.913,498.545 635.781,498.977 635.643,499.409 635.499,499.84 
			635.35,500.271 635.195,500.701 635.034,501.13 634.867,501.559 634.695,501.986 634.517,502.412 634.333,502.837 
			634.144,503.261 633.948,503.683 633.747,504.104 633.541,504.523 633.328,504.94 633.11,505.355 632.887,505.769 632.657,506.18 
			632.422,506.589 632.182,506.995 631.935,507.4 631.684,507.801 631.427,508.2 631.164,508.596 630.896,508.989 630.623,509.379 
			630.344,509.766 630.06,510.15 629.771,510.53 629.477,510.907 629.178,511.281 628.874,511.65 628.565,512.017 628.251,512.379 
			627.932,512.737 627.609,513.091 627.28,513.441 626.948,513.787 626.611,514.129 626.269,514.466 625.923,514.799 
			625.573,515.127 625.219,515.45 624.861,515.769 624.498,516.083 624.132,516.392 623.763,516.696 623.389,516.995 
			623.012,517.29 622.632,517.579 622.248,517.862 621.861,518.141 621.471,518.414 621.078,518.682 620.682,518.945 
			620.283,519.202 619.881,519.454 619.477,519.7 619.071,519.94 618.662,520.175 618.251,520.405 617.837,520.628 617.422,520.846 
			617.005,521.059 616.586,521.266 616.165,521.467 615.743,521.662 615.319,521.851 614.894,522.035 614.468,522.213 
			614.041,522.385 613.612,522.552 613.183,522.713 612.753,522.868 612.322,523.017 611.891,523.161 611.459,523.299 
			611.027,523.431 610.595,523.557 610.162,523.678 609.73,523.794 609.297,523.904 608.865,524.008 608.433,524.106 608.001,524.2 
			607.57,524.287 607.139,524.37 606.709,524.447 606.28,524.518 605.851,524.585 605.423,524.646 604.997,524.702 604.571,524.752 
			604.147,524.798 603.724,524.839 603.302,524.874 602.881,524.905 602.463,524.931 602.045,524.952 601.629,524.968 
			601.215,524.98 600.803,524.986 600.392,524.989 		"/>
	</g>
	<g id="POLYLINE_55_">
		
			<rect x="149.608" y="245.273" fill="none" stroke="#00B9D2" stroke-width="2.75" stroke-linecap="round" stroke-linejoin="round" stroke-miterlimit="10" width="450.784" height="241.175"/>
	</g>
	<g id="POLYLINE_57_">
		
			<polyline fill="none" stroke="#00B9D2" stroke-width="2.75" stroke-linecap="round" stroke-linejoin="round" stroke-miterlimit="10" points="
			637.471,487.91 637.471,506.188 637.468,506.599 637.462,507.011 637.45,507.425 637.434,507.841 637.413,508.259 
			637.387,508.678 637.356,509.098 637.321,509.52 637.28,509.943 637.234,510.367 637.184,510.793 637.128,511.22 637.067,511.647 
			637,512.076 636.929,512.505 636.852,512.935 636.769,513.366 636.682,513.797 636.588,514.229 636.49,514.661 636.385,515.093 
			636.276,515.526 636.16,515.958 636.039,516.391 635.913,516.823 635.781,517.255 635.643,517.687 635.499,518.118 
			635.35,518.549 635.195,518.979 635.034,519.408 634.867,519.837 634.695,520.264 634.517,520.69 634.333,521.115 
			634.144,521.539 633.948,521.961 633.747,522.382 633.541,522.801 633.328,523.218 633.11,523.634 632.887,524.047 
			632.657,524.458 632.422,524.867 632.182,525.274 631.935,525.678 631.684,526.079 631.427,526.478 631.164,526.874 
			630.896,527.267 630.623,527.657 630.344,528.044 630.06,528.428 629.771,528.808 629.477,529.185 629.178,529.559 
			628.874,529.929 628.565,530.295 628.251,530.657 627.932,531.015 627.609,531.369 627.28,531.719 626.948,532.065 
			626.611,532.407 626.269,532.744 625.923,533.077 625.573,533.405 625.219,533.728 624.861,534.047 624.498,534.361 
			624.132,534.67 623.763,534.974 623.389,535.273 623.012,535.568 622.632,535.857 622.248,536.141 621.861,536.419 
			621.471,536.692 621.078,536.96 620.682,537.223 620.283,537.48 619.881,537.732 619.477,537.978 619.071,538.218 
			618.662,538.453 618.251,538.683 617.837,538.906 617.422,539.125 617.005,539.337 616.586,539.544 616.165,539.745 
			615.743,539.94 615.319,540.129 614.894,540.313 614.468,540.491 614.041,540.664 613.612,540.83 613.183,540.991 
			612.753,541.146 612.322,541.295 611.891,541.439 611.459,541.577 611.027,541.709 610.595,541.836 610.162,541.957 
			609.73,542.072 609.297,542.182 608.865,542.286 608.433,542.385 608.001,542.478 607.57,542.565 607.139,542.648 
			606.709,542.725 606.28,542.796 605.851,542.863 605.423,542.924 604.997,542.98 604.571,543.031 604.147,543.076 
			603.724,543.117 603.302,543.152 602.881,543.183 602.463,543.209 602.045,543.23 601.629,543.246 601.215,543.258 
			600.803,543.265 600.392,543.267 149.608,543.267 149.197,543.265 148.785,543.258 148.371,543.246 147.955,543.23 
			147.538,543.209 147.119,543.183 146.698,543.152 146.276,543.117 145.853,543.076 145.429,543.031 145.003,542.98 
			144.577,542.924 144.149,542.863 143.72,542.796 143.291,542.725 142.861,542.648 142.43,542.565 141.999,542.478 
			141.567,542.385 141.135,542.286 140.703,542.182 140.27,542.072 139.838,541.957 139.405,541.836 138.973,541.709 
			138.541,541.577 138.109,541.439 137.678,541.295 137.247,541.146 136.817,540.991 136.388,540.83 135.959,540.664 
			135.532,540.491 135.106,540.313 134.681,540.129 134.257,539.94 133.835,539.745 133.414,539.544 132.995,539.337 
			132.578,539.125 132.163,538.906 131.749,538.683 131.338,538.453 130.929,538.218 130.523,537.978 130.119,537.732 
			129.717,537.48 129.318,537.223 128.922,536.96 128.529,536.692 128.139,536.419 127.752,536.141 127.368,535.857 
			126.988,535.568 126.611,535.273 126.237,534.974 125.868,534.67 125.502,534.361 125.139,534.047 124.781,533.728 
			124.427,533.405 124.077,533.077 123.731,532.744 123.389,532.407 123.052,532.065 122.72,531.719 122.391,531.369 
			122.068,531.015 121.749,530.657 121.435,530.295 121.126,529.929 120.822,529.559 120.523,529.185 120.229,528.808 
			119.939,528.428 119.656,528.044 119.377,527.657 119.104,527.267 118.836,526.874 118.573,526.478 118.316,526.079 
			118.065,525.678 117.818,525.274 117.578,524.867 117.343,524.458 117.113,524.047 116.89,523.634 116.672,523.218 
			116.459,522.801 116.252,522.382 116.052,521.961 115.856,521.539 115.667,521.115 115.483,520.69 115.305,520.264 
			115.133,519.837 114.966,519.408 114.805,518.979 114.65,518.549 114.501,518.118 114.357,517.687 114.219,517.255 
			114.087,516.823 113.961,516.391 113.84,515.958 113.724,515.526 113.615,515.093 113.51,514.661 113.412,514.229 
			113.318,513.797 113.231,513.366 113.148,512.935 113.071,512.505 113,512.076 112.933,511.647 112.872,511.22 112.816,510.793 
			112.766,510.367 112.72,509.943 112.679,509.52 112.644,509.098 112.613,508.678 112.587,508.259 112.566,507.841 112.55,507.425 
			112.538,507.011 112.532,506.599 112.529,506.188 112.529,487.91 		"/>
	</g>
</g>
<g id="AG-OUTLINE">
	<g id="POLYLINE_25_">
		
			<polygon fill="none" stroke="#00B9D2" stroke-width="3.5" stroke-linecap="round" stroke-linejoin="round" stroke-miterlimit="10" points="
			112.529,487.91 112.529,243.812 112.532,243.401 112.538,242.989 112.55,242.575 112.566,242.159 112.587,241.741 
			112.613,241.322 112.644,240.902 112.679,240.48 112.72,240.057 112.766,239.633 112.816,239.207 112.872,238.78 112.933,238.353 
			113,237.924 113.071,237.495 113.148,237.065 113.231,236.634 113.318,236.203 113.412,235.771 113.51,235.339 113.615,234.907 
			113.724,234.474 113.84,234.042 113.961,233.609 114.087,233.177 114.219,232.745 114.357,232.313 114.501,231.882 
			114.65,231.451 114.805,231.021 114.966,230.592 115.133,230.163 115.305,229.736 115.483,229.31 115.667,228.885 
			115.856,228.461 116.052,228.039 116.252,227.618 116.459,227.199 116.672,226.782 116.89,226.366 117.113,225.953 
			117.343,225.542 117.578,225.133 117.818,224.726 118.065,224.322 118.316,223.921 118.573,223.522 118.836,223.126 
			119.104,222.733 119.377,222.343 119.656,221.956 119.939,221.572 120.229,221.192 120.523,220.815 120.822,220.441 
			121.126,220.071 121.435,219.705 121.749,219.343 122.068,218.985 122.391,218.631 122.72,218.281 123.052,217.935 
			123.389,217.593 123.731,217.256 124.077,216.923 124.427,216.595 124.781,216.272 125.139,215.953 125.502,215.639 
			125.868,215.33 126.237,215.026 126.611,214.726 126.988,214.432 127.368,214.143 127.752,213.86 128.139,213.581 
			128.529,213.308 128.922,213.04 129.318,212.777 129.717,212.52 130.119,212.268 130.523,212.022 130.929,211.782 
			131.338,211.547 131.749,211.317 132.163,211.094 132.578,210.875 132.995,210.663 133.414,210.456 133.835,210.255 
			134.257,210.06 134.681,209.871 135.106,209.687 135.532,209.509 135.959,209.337 136.388,209.17 136.817,209.009 
			137.247,208.854 137.678,208.705 138.109,208.561 138.541,208.423 138.973,208.291 139.405,208.164 139.838,208.043 
			140.27,207.928 140.703,207.818 141.135,207.714 141.567,207.615 141.999,207.522 142.43,207.435 142.861,207.352 
			143.291,207.275 143.72,207.204 144.149,207.137 144.577,207.076 145.003,207.02 145.429,206.969 145.853,206.924 
			146.276,206.883 146.698,206.848 147.119,206.817 147.538,206.791 147.955,206.77 148.371,206.754 148.785,206.742 
			149.197,206.735 149.608,206.733 600.392,206.733 600.803,206.735 601.215,206.742 601.629,206.754 602.045,206.77 
			602.463,206.791 602.881,206.817 603.302,206.848 603.724,206.883 604.147,206.924 604.571,206.969 604.997,207.02 
			605.423,207.076 605.851,207.137 606.28,207.204 606.709,207.275 607.139,207.352 607.57,207.435 608.001,207.522 
			608.433,207.615 608.865,207.714 609.297,207.818 609.73,207.928 610.162,208.043 610.595,208.164 611.027,208.291 
			611.459,208.423 611.891,208.561 612.322,208.705 612.753,208.854 613.183,209.009 613.612,209.17 614.041,209.337 
			614.468,209.509 614.894,209.687 615.319,209.871 615.743,210.06 616.165,210.255 616.586,210.456 617.005,210.663 
			617.422,210.875 617.837,211.094 618.251,211.317 618.662,211.547 619.071,211.782 619.477,212.022 619.881,212.268 
			620.283,212.52 620.682,212.777 621.078,213.04 621.471,213.308 621.861,213.581 622.248,213.86 622.632,214.143 623.012,214.432 
			623.389,214.726 623.763,215.026 624.132,215.33 624.498,215.639 624.861,215.953 625.219,216.272 625.573,216.595 
			625.923,216.923 626.269,217.256 626.611,217.593 626.948,217.935 627.28,218.281 627.609,218.631 627.932,218.985 
			628.251,219.343 628.565,219.705 628.874,220.071 629.178,220.441 629.477,220.815 629.771,221.192 630.06,221.572 
			630.344,221.956 630.623,222.343 630.896,222.733 631.164,223.126 631.427,223.522 631.684,223.921 631.935,224.322 
			632.182,224.726 632.422,225.133 632.657,225.542 632.887,225.953 633.11,226.366 633.328,226.782 633.541,227.199 
			633.747,227.618 633.948,228.039 634.144,228.461 634.333,228.885 634.517,229.31 634.695,229.736 634.867,230.163 
			635.034,230.592 635.195,231.021 635.35,231.451 635.499,231.882 635.643,232.313 635.781,232.745 635.913,233.177 
			636.039,233.609 636.16,234.042 636.276,234.474 636.385,234.907 636.49,235.339 636.588,235.771 636.682,236.203 
			636.769,236.634 636.852,237.065 636.929,237.495 637,237.924 637.067,238.353 637.128,238.78 637.184,239.207 637.234,239.633 
			637.28,240.057 637.321,240.48 637.356,240.902 637.387,241.322 637.413,241.741 637.434,242.159 637.45,242.575 637.462,242.989 
			637.468,243.401 637.471,243.812 637.471,262.09 637.471,487.91 637.471,506.188 637.468,506.599 637.462,507.011 637.45,507.425 
			637.434,507.841 637.413,508.259 637.387,508.678 637.356,509.098 637.321,509.52 637.28,509.943 637.234,510.367 
			637.184,510.793 637.128,511.22 637.067,511.647 637,512.076 636.929,512.505 636.852,512.935 636.769,513.366 636.682,513.797 
			636.588,514.229 636.49,514.661 636.385,515.093 636.276,515.526 636.16,515.958 636.039,516.391 635.913,516.823 
			635.781,517.255 635.643,517.687 635.499,518.118 635.35,518.549 635.195,518.979 635.034,519.408 634.867,519.837 
			634.695,520.264 634.517,520.69 634.333,521.115 634.144,521.539 633.948,521.961 633.747,522.382 633.541,522.801 
			633.328,523.218 633.11,523.634 632.887,524.047 632.657,524.458 632.422,524.867 632.182,525.274 631.935,525.678 
			631.684,526.079 631.427,526.478 631.164,526.874 630.896,527.267 630.623,527.657 630.344,528.044 630.06,528.428 
			629.771,528.808 629.477,529.185 629.178,529.559 628.874,529.929 628.565,530.295 628.251,530.657 627.932,531.015 
			627.609,531.369 627.28,531.719 626.948,532.065 626.611,532.407 626.269,532.744 625.923,533.077 625.573,533.405 
			625.219,533.728 624.861,534.047 624.498,534.361 624.132,534.67 623.763,534.974 623.389,535.273 623.012,535.568 
			622.632,535.857 622.248,536.141 621.861,536.419 621.471,536.692 621.078,536.96 620.682,537.223 620.283,537.48 
			619.881,537.732 619.477,537.978 619.071,538.218 618.662,538.453 618.251,538.683 617.837,538.906 617.422,539.125 
			617.005,539.337 616.586,539.544 616.165,539.745 615.743,539.94 615.319,540.129 614.894,540.313 614.468,540.491 
			614.041,540.664 613.612,540.83 613.183,540.991 612.753,541.146 612.322,541.295 611.891,541.439 611.459,541.577 
			611.027,541.709 610.595,541.836 610.162,541.957 609.73,542.072 609.297,542.182 608.865,542.286 608.433,542.385 
			608.001,542.478 607.57,542.565 607.139,542.648 606.709,542.725 606.28,542.796 605.851,542.863 605.423,542.924 604.997,542.98 
			604.571,543.031 604.147,543.076 603.724,543.117 603.302,543.152 602.881,543.183 602.463,543.209 602.045,543.23 
			601.629,543.246 601.215,543.258 600.803,543.265 600.392,543.267 149.608,543.267 149.197,543.265 148.785,543.258 
			148.371,543.246 147.955,543.23 147.538,543.209 147.119,543.183 146.698,543.152 146.276,543.117 145.853,543.076 
			145.429,543.031 145.003,542.98 144.577,542.924 144.149,542.863 143.72,542.796 143.291,542.725 142.861,542.648 142.43,542.565 
			141.999,542.478 141.567,542.385 141.135,542.286 140.703,542.182 140.27,542.072 139.838,541.957 139.405,541.836 
			138.973,541.709 138.541,541.577 138.109,541.439 137.678,541.295 137.247,541.146 136.817,540.991 136.388,540.83 
			135.959,540.664 135.532,540.491 135.106,540.313 134.681,540.129 134.257,539.94 133.835,539.745 133.414,539.544 
			132.995,539.337 132.578,539.125 132.163,538.906 131.749,538.683 131.338,538.453 130.929,538.218 130.523,537.978 
			130.119,537.732 129.717,537.48 129.318,537.223 128.922,536.96 128.529,536.692 128.139,536.419 127.752,536.141 
			127.368,535.857 126.988,535.568 126.611,535.273 126.237,534.974 125.868,534.67 125.502,534.361 125.139,534.047 
			124.781,533.728 124.427,533.405 124.077,533.077 123.731,532.744 123.389,532.407 123.052,532.065 122.72,531.719 
			122.391,531.369 122.068,531.015 121.749,530.657 121.435,530.295 121.126,529.929 120.822,529.559 120.523,529.185 
			120.229,528.808 119.939,528.428 119.656,528.044 119.377,527.657 119.104,527.267 118.836,526.874 118.573,526.478 
			118.316,526.079 118.065,525.678 117.818,525.274 117.578,524.867 117.343,524.458 117.113,524.047 116.89,523.634 
			116.672,523.218 116.459,522.801 116.252,522.382 116.052,521.961 115.856,521.539 115.667,521.115 115.483,520.69 
			115.305,520.264 115.133,519.837 114.966,519.408 114.805,518.979 114.65,518.549 114.501,518.118 114.357,517.687 
			114.219,517.255 114.087,516.823 113.961,516.391 113.84,515.958 113.724,515.526 113.615,515.093 113.51,514.661 
			113.412,514.229 113.318,513.797 113.231,513.366 113.148,512.935 113.071,512.505 113,512.076 112.933,511.647 112.872,511.22 
			112.816,510.793 112.766,510.367 112.72,509.943 112.679,509.52 112.644,509.098 112.613,508.678 112.587,508.259 
			112.566,507.841 112.55,507.425 112.538,507.011 112.532,506.599 112.529,506.188 		"/>
	</g>
</g>
</svg>
