<?xml version="1.0" encoding="utf-8"?>
<!-- Generator: Adobe Illustrator 24.1.0, SVG Export Plug-In . SVG Version: 6.00 Build 0)  -->
<!DOCTYPE svg PUBLIC "-//W3C//DTD SVG 1.1//EN" "http://www.w3.org/Graphics/SVG/1.1/DTD/svg11.dtd" [
	<!ENTITY ns_extend "http://ns.adobe.com/Extensibility/1.0/">
	<!ENTITY ns_ai "http://ns.adobe.com/AdobeIllustrator/10.0/">
	<!ENTITY ns_graphs "http://ns.adobe.com/Graphs/1.0/">
	<!ENTITY ns_vars "http://ns.adobe.com/Variables/1.0/">
	<!ENTITY ns_imrep "http://ns.adobe.com/ImageReplacement/1.0/">
	<!ENTITY ns_sfw "http://ns.adobe.com/SaveForWeb/1.0/">
	<!ENTITY ns_custom "http://ns.adobe.com/GenericCustomNamespace/1.0/">
	<!ENTITY ns_adobe_xpath "http://ns.adobe.com/XPath/1.0/">
]>
<svg version="1.1" xmlns:x="&ns_extend;" xmlns:i="&ns_ai;" xmlns:graph="&ns_graphs;"
	 xmlns="http://www.w3.org/2000/svg" xmlns:xlink="http://www.w3.org/1999/xlink" x="0px" y="0px" viewBox="0 0 750 750"
	 enable-background="new 0 0 750 750" xml:space="preserve">
<metadata>
	<sfw  xmlns="&ns_sfw;">
		<slices></slices>
		<sliceSourceBounds  bottomLeftOrigin="true" height="13783.691" width="4411.17" x="-4449.17" y="-5022"></sliceSourceBounds>
	</sfw>
</metadata>
<g id="FILL-BACKGROUND">
	<rect y="0" fill="#FFFFFF" width="750" height="750"/>
</g>
<g id="N-DIMENSIONS">
</g>
<g id="N-TEXT">
</g>
<g id="AG-DIAGRAM">
	<g id="POLYLINE_637_">
		<g>
			<g>
				
					<line fill="none" stroke="#00B9D2" stroke-width="3.25" stroke-linecap="round" stroke-linejoin="round" x1="202.764" y1="602.65" x2="204.764" y2="602.65"/>
				
					<line fill="none" stroke="#00B9D2" stroke-width="3.25" stroke-linecap="round" stroke-linejoin="round" stroke-dasharray="4.0412,7.0721" x1="211.836" y1="602.65" x2="541.7" y2="602.65"/>
				
					<line fill="none" stroke="#00B9D2" stroke-width="3.25" stroke-linecap="round" stroke-linejoin="round" x1="545.236" y1="602.65" x2="547.236" y2="602.65"/>
			</g>
		</g>
	</g>
</g>
<g id="AG-DETAIL-DIAGRAM">
</g>
<g id="AG-DETAILS">
	<g id="POLYLINE_38_">
		
			<line fill="none" stroke="#00B9D2" stroke-width="2" stroke-linecap="round" stroke-linejoin="round" stroke-miterlimit="10" x1="241.55" y1="155.102" x2="508.45" y2="155.102"/>
	</g>
</g>
<g id="AG-DIGITAL">
	<g id="POLYLINE_311_">
		
			<polyline fill="none" stroke="#00B9D2" stroke-width="2.75" stroke-linecap="round" stroke-linejoin="round" stroke-miterlimit="10" points="
			241.55,561.35 241.55,155.102 241.551,154.968 241.555,154.835 241.56,154.701 241.569,154.567 241.579,154.434 241.592,154.301 
			241.607,154.168 241.624,154.035 241.643,153.903 241.665,153.771 241.689,153.639 241.716,153.508 241.744,153.377 
			241.775,153.247 241.808,153.117 241.844,152.988 241.881,152.86 241.921,152.732 241.963,152.605 242.007,152.479 
			242.054,152.353 242.102,152.229 242.153,152.105 242.206,151.982 242.261,151.86 242.318,151.739 242.377,151.619 242.438,151.5 
			242.501,151.382 242.566,151.265 242.634,151.149 242.703,151.035 242.774,150.921 242.847,150.809 242.922,150.698 
			242.999,150.589 243.078,150.481 243.159,150.374 243.241,150.269 243.326,150.165 243.412,150.062 243.5,149.962 
			243.589,149.862 243.681,149.764 243.773,149.668 243.868,149.574 243.964,149.481 244.062,149.389 244.162,149.3 
			244.262,149.212 244.365,149.126 244.469,149.041 244.574,148.959 244.681,148.878 244.789,148.799 244.898,148.722 
			245.009,148.647 245.121,148.574 245.235,148.503 245.349,148.434 245.465,148.366 245.582,148.301 245.7,148.238 
			245.819,148.177 245.939,148.118 246.06,148.061 246.182,148.006 246.305,147.953 246.429,147.902 246.553,147.854 
			246.679,147.807 246.805,147.763 246.932,147.721 247.06,147.681 247.188,147.644 247.317,147.608 247.447,147.575 
			247.577,147.544 247.708,147.516 247.839,147.489 247.971,147.465 248.103,147.443 248.235,147.424 248.368,147.407 
			248.501,147.392 248.634,147.379 248.767,147.369 248.901,147.36 249.035,147.355 249.168,147.351 249.302,147.35 500.698,147.35 
			500.832,147.351 500.965,147.355 501.099,147.36 501.233,147.369 501.366,147.379 501.499,147.392 501.632,147.407 
			501.765,147.424 501.897,147.443 502.029,147.465 502.161,147.489 502.292,147.516 502.423,147.544 502.553,147.575 
			502.683,147.608 502.812,147.644 502.94,147.681 503.068,147.721 503.195,147.763 503.321,147.807 503.447,147.854 
			503.572,147.902 503.695,147.953 503.818,148.006 503.94,148.061 504.061,148.118 504.181,148.177 504.3,148.238 504.418,148.301 
			504.535,148.366 504.651,148.434 504.765,148.503 504.879,148.574 504.991,148.647 505.102,148.722 505.211,148.799 
			505.319,148.878 505.426,148.959 505.531,149.041 505.635,149.126 505.738,149.212 505.838,149.3 505.938,149.389 
			506.036,149.481 506.132,149.574 506.227,149.668 506.319,149.764 506.411,149.862 506.5,149.962 506.588,150.062 
			506.674,150.165 506.759,150.269 506.841,150.374 506.922,150.481 507.001,150.589 507.078,150.698 507.153,150.809 
			507.226,150.921 507.297,151.035 507.366,151.149 507.434,151.265 507.499,151.382 507.562,151.5 507.623,151.619 
			507.682,151.739 507.739,151.86 507.794,151.982 507.847,152.105 507.898,152.229 507.946,152.353 507.993,152.479 
			508.037,152.605 508.079,152.732 508.119,152.86 508.156,152.988 508.192,153.117 508.225,153.247 508.256,153.377 
			508.284,153.508 508.311,153.639 508.335,153.771 508.357,153.903 508.376,154.035 508.393,154.168 508.408,154.301 
			508.421,154.434 508.431,154.567 508.44,154.701 508.445,154.835 508.449,154.968 508.45,155.102 508.45,561.35 		"/>
	</g>
	<g id="POLYLINE_310_">
		
			<line fill="none" stroke="#00B9D2" stroke-width="2.75" stroke-linecap="round" stroke-linejoin="round" stroke-miterlimit="10" x1="489.269" y1="591.158" x2="260.731" y2="591.158"/>
	</g>
	<g id="POLYLINE_309_">
		
			<polyline fill="none" stroke="#00B9D2" stroke-width="2.75" stroke-linecap="round" stroke-linejoin="round" stroke-miterlimit="10" points="
			489.269,591.158 489.568,591.156 489.864,591.151 490.158,591.142 490.45,591.129 490.739,591.112 491.025,591.092 
			491.31,591.069 491.592,591.042 491.872,591.011 492.149,590.976 492.424,590.938 492.697,590.896 492.968,590.85 
			493.236,590.801 493.501,590.749 493.765,590.692 494.026,590.632 494.285,590.568 494.541,590.501 494.795,590.43 
			495.047,590.356 495.296,590.277 495.543,590.195 495.788,590.11 496.03,590.021 496.27,589.928 496.508,589.832 496.743,589.732 
			496.976,589.628 497.207,589.521 497.435,589.41 497.661,589.295 497.885,589.177 498.106,589.055 498.325,588.929 498.541,588.8 
			498.756,588.667 498.967,588.531 499.177,588.391 499.384,588.247 499.589,588.1 499.792,587.949 499.992,587.794 500.19,587.636 
			500.385,587.474 500.578,587.308 500.769,587.139 500.958,586.966 501.144,586.79 501.328,586.61 501.509,586.426 
			501.688,586.239 501.865,586.047 502.039,585.853 502.211,585.655 502.381,585.453 502.549,585.247 502.714,585.038 
			502.876,584.825 503.037,584.608 503.195,584.388 503.35,584.165 503.504,583.937 503.655,583.706 503.803,583.471 
			503.95,583.233 504.094,582.991 504.236,582.745 504.375,582.496 504.512,582.243 504.646,581.987 504.779,581.727 
			504.909,581.463 505.036,581.195 505.161,580.924 505.284,580.65 505.405,580.371 505.523,580.089 505.639,579.804 
			505.753,579.514 505.864,579.221 505.973,578.925 506.079,578.625 506.184,578.321 506.285,578.013 506.385,577.702 
			506.482,577.388 506.577,577.069 506.669,576.747 506.759,576.422 506.847,576.092 506.933,575.759 507.016,575.423 
			507.097,575.083 507.251,574.391 507.396,573.685 507.532,572.965 507.659,572.23 507.776,571.48 507.883,570.716 
			507.982,569.938 508.071,569.144 508.15,568.337 508.22,567.514 508.281,566.677 508.333,565.826 508.375,564.96 508.408,564.079 
			508.431,563.184 508.445,562.275 508.45,561.35 		"/>
	</g>
	<g id="POLYLINE_300_">
		
			<polyline fill="none" stroke="#00B9D2" stroke-width="2.75" stroke-linecap="round" stroke-linejoin="round" stroke-miterlimit="10" points="
			260.731,591.158 260.432,591.156 260.136,591.151 259.842,591.142 259.55,591.129 259.261,591.112 258.975,591.092 
			258.69,591.069 258.408,591.042 258.128,591.011 257.851,590.976 257.576,590.938 257.303,590.896 257.032,590.85 
			256.764,590.801 256.499,590.749 256.235,590.692 255.974,590.632 255.715,590.568 255.459,590.501 255.205,590.43 
			254.953,590.356 254.704,590.277 254.457,590.195 254.212,590.11 253.97,590.021 253.73,589.928 253.492,589.832 253.257,589.732 
			253.024,589.628 252.793,589.521 252.565,589.41 252.339,589.295 252.115,589.177 251.894,589.055 251.675,588.929 251.459,588.8 
			251.244,588.667 251.033,588.531 250.823,588.391 250.616,588.247 250.411,588.1 250.208,587.949 250.008,587.794 249.81,587.636 
			249.615,587.474 249.422,587.308 249.231,587.139 249.042,586.966 248.856,586.79 248.672,586.61 248.491,586.426 
			248.312,586.239 248.135,586.047 247.961,585.853 247.789,585.655 247.619,585.453 247.451,585.247 247.286,585.038 
			247.124,584.825 246.963,584.608 246.805,584.388 246.65,584.165 246.496,583.937 246.345,583.706 246.196,583.471 
			246.05,583.233 245.906,582.991 245.765,582.745 245.625,582.496 245.488,582.243 245.354,581.987 245.221,581.727 
			245.091,581.463 244.964,581.195 244.839,580.924 244.716,580.65 244.595,580.371 244.477,580.089 244.361,579.804 
			244.247,579.514 244.136,579.221 244.027,578.925 243.921,578.625 243.816,578.321 243.715,578.013 243.615,577.702 
			243.518,577.388 243.423,577.069 243.331,576.747 243.241,576.422 243.153,576.092 243.067,575.759 242.984,575.423 
			242.903,575.083 242.749,574.391 242.604,573.685 242.468,572.965 242.341,572.23 242.224,571.48 242.117,570.716 
			242.018,569.938 241.929,569.144 241.85,568.337 241.779,567.514 241.719,566.677 241.667,565.826 241.625,564.96 
			241.592,564.079 241.569,563.184 241.555,562.275 241.55,561.35 		"/>
	</g>
	<g id="POLYLINE_299_">
		
			<rect x="260.731" y="591.158" fill="none" stroke="#00B9D2" stroke-width="2.75" stroke-linecap="round" stroke-linejoin="round" stroke-miterlimit="10" width="228.539" height="11.492"/>
	</g>
</g>
<g id="AG-OUTLINE">
	<g id="POLYLINE_3_">
		
			<polygon fill="none" stroke="#00B9D2" stroke-width="3.5" stroke-linecap="round" stroke-linejoin="round" stroke-miterlimit="10" points="
			508.45,561.35 508.45,155.102 508.449,155.016 508.448,154.93 508.446,154.844 508.442,154.757 508.438,154.669 508.432,154.582 
			508.426,154.494 508.419,154.406 508.41,154.317 508.401,154.228 508.39,154.139 508.378,154.05 508.365,153.961 508.352,153.871 
			508.337,153.781 508.321,153.692 508.303,153.602 508.285,153.511 508.265,153.421 508.245,153.331 508.223,153.24 508.2,153.15 
			508.176,153.06 508.151,152.969 508.124,152.879 508.097,152.788 508.068,152.698 508.038,152.608 508.007,152.518 
			507.974,152.428 507.94,152.338 507.906,152.249 507.87,152.159 507.832,152.07 507.794,151.981 507.754,151.893 507.714,151.804 
			507.672,151.717 507.628,151.629 507.584,151.542 507.538,151.455 507.492,151.368 507.444,151.282 507.394,151.197 
			507.344,151.112 507.293,151.027 507.24,150.944 507.186,150.86 507.131,150.777 507.075,150.695 507.018,150.614 506.96,150.533 
			506.901,150.452 506.84,150.373 506.779,150.294 506.716,150.216 506.653,150.139 506.588,150.062 506.522,149.986 
			506.456,149.912 506.388,149.838 506.319,149.764 506.25,149.692 506.179,149.621 506.108,149.55 506.036,149.481 
			505.962,149.412 505.888,149.344 505.814,149.278 505.738,149.212 505.661,149.147 505.584,149.084 505.506,149.021 
			505.427,148.96 505.348,148.899 505.267,148.84 505.186,148.782 505.105,148.725 505.023,148.669 504.94,148.614 504.857,148.56 
			504.773,148.507 504.688,148.456 504.603,148.406 504.518,148.356 504.432,148.308 504.345,148.262 504.258,148.216 
			504.171,148.172 504.084,148.128 503.996,148.086 503.907,148.046 503.819,148.006 503.73,147.968 503.641,147.93 
			503.551,147.894 503.462,147.86 503.372,147.826 503.282,147.794 503.192,147.762 503.102,147.732 503.012,147.703 
			502.921,147.676 502.831,147.649 502.74,147.624 502.65,147.6 502.56,147.577 502.469,147.555 502.379,147.535 502.289,147.515 
			502.198,147.497 502.108,147.479 502.019,147.463 501.929,147.448 501.839,147.435 501.75,147.422 501.661,147.41 
			501.572,147.399 501.483,147.39 501.394,147.381 501.306,147.374 501.218,147.368 501.131,147.362 501.043,147.358 
			500.957,147.354 500.87,147.352 500.784,147.351 500.698,147.35 249.302,147.35 249.216,147.351 249.13,147.352 249.043,147.354 
			248.957,147.358 248.869,147.362 248.782,147.368 248.694,147.374 248.606,147.381 248.517,147.39 248.428,147.399 
			248.339,147.41 248.25,147.422 248.161,147.435 248.071,147.448 247.981,147.463 247.892,147.479 247.801,147.497 
			247.711,147.515 247.621,147.535 247.531,147.555 247.44,147.577 247.35,147.6 247.26,147.624 247.169,147.649 247.079,147.676 
			246.988,147.703 246.898,147.732 246.808,147.762 246.718,147.794 246.628,147.826 246.538,147.86 246.449,147.894 
			246.359,147.93 246.27,147.968 246.181,148.006 246.093,148.046 246.004,148.086 245.916,148.128 245.829,148.172 
			245.742,148.216 245.655,148.262 245.568,148.308 245.482,148.356 245.397,148.406 245.312,148.456 245.227,148.507 
			245.144,148.56 245.06,148.614 244.977,148.669 244.895,148.725 244.814,148.782 244.733,148.84 244.652,148.899 244.573,148.96 
			244.494,149.021 244.416,149.084 244.339,149.147 244.262,149.212 244.186,149.278 244.112,149.344 244.037,149.412 
			243.964,149.481 243.892,149.55 243.821,149.621 243.75,149.692 243.681,149.764 243.612,149.838 243.544,149.912 
			243.478,149.986 243.412,150.062 243.347,150.139 243.284,150.216 243.221,150.294 243.16,150.373 243.099,150.452 
			243.04,150.533 242.982,150.614 242.925,150.695 242.869,150.777 242.814,150.86 242.76,150.944 242.707,151.027 242.656,151.112 
			242.606,151.197 242.556,151.282 242.508,151.368 242.462,151.455 242.416,151.542 242.372,151.629 242.328,151.717 
			242.286,151.804 242.246,151.893 242.206,151.981 242.168,152.07 242.13,152.159 242.094,152.249 242.06,152.338 242.026,152.428 
			241.993,152.518 241.962,152.608 241.932,152.698 241.903,152.788 241.876,152.879 241.849,152.969 241.824,153.06 241.8,153.15 
			241.777,153.24 241.755,153.331 241.735,153.421 241.715,153.511 241.697,153.602 241.679,153.692 241.663,153.781 
			241.648,153.871 241.635,153.961 241.622,154.05 241.61,154.139 241.599,154.228 241.59,154.317 241.581,154.406 241.574,154.494 
			241.568,154.582 241.562,154.669 241.558,154.757 241.554,154.844 241.552,154.93 241.551,155.016 241.55,155.102 241.55,561.35 
			241.555,562.275 241.569,563.184 241.592,564.079 241.625,564.96 241.667,565.826 241.719,566.677 241.779,567.514 
			241.85,568.337 241.929,569.144 242.018,569.938 242.117,570.716 242.224,571.48 242.341,572.23 242.468,572.965 242.604,573.685 
			242.749,574.391 242.903,575.083 242.984,575.423 243.067,575.759 243.153,576.092 243.241,576.422 243.331,576.747 
			243.423,577.069 243.518,577.388 243.615,577.702 243.715,578.013 243.816,578.321 243.921,578.625 244.027,578.925 
			244.136,579.221 244.247,579.514 244.361,579.804 244.477,580.089 244.595,580.371 244.716,580.65 244.839,580.924 
			244.964,581.195 245.091,581.463 245.221,581.727 245.354,581.987 245.488,582.243 245.625,582.496 245.765,582.745 
			245.906,582.991 246.05,583.233 246.196,583.471 246.345,583.706 246.496,583.937 246.65,584.165 246.805,584.388 
			246.963,584.608 247.124,584.825 247.286,585.038 247.451,585.247 247.619,585.453 247.789,585.655 247.961,585.853 
			248.135,586.047 248.312,586.239 248.491,586.426 248.672,586.61 248.856,586.79 249.042,586.966 249.231,587.139 
			249.422,587.308 249.615,587.474 249.81,587.636 250.008,587.794 250.208,587.949 250.411,588.1 250.616,588.247 250.823,588.391 
			251.033,588.531 251.244,588.667 251.459,588.8 251.675,588.929 251.894,589.055 252.115,589.177 252.339,589.295 252.565,589.41 
			252.793,589.521 253.024,589.628 253.257,589.732 253.492,589.832 253.73,589.928 253.97,590.021 254.212,590.11 254.457,590.195 
			254.704,590.277 254.953,590.356 255.205,590.43 255.459,590.501 255.715,590.568 255.974,590.632 256.235,590.692 
			256.499,590.749 256.764,590.801 257.032,590.85 257.303,590.896 257.576,590.938 257.851,590.976 258.128,591.011 
			258.408,591.042 258.69,591.069 258.975,591.092 259.261,591.112 259.55,591.129 259.842,591.142 260.136,591.151 
			260.432,591.156 260.731,591.158 260.731,602.65 489.269,602.65 489.269,591.158 489.568,591.156 489.864,591.151 
			490.158,591.142 490.45,591.129 490.739,591.112 491.025,591.092 491.31,591.069 491.592,591.042 491.872,591.011 
			492.149,590.976 492.424,590.938 492.697,590.896 492.968,590.85 493.236,590.801 493.501,590.749 493.765,590.692 
			494.026,590.632 494.285,590.568 494.541,590.501 494.795,590.43 495.047,590.356 495.296,590.277 495.543,590.195 
			495.788,590.11 496.03,590.021 496.27,589.928 496.508,589.832 496.743,589.732 496.976,589.628 497.207,589.521 497.435,589.41 
			497.661,589.295 497.885,589.177 498.106,589.055 498.325,588.929 498.541,588.8 498.756,588.667 498.967,588.531 
			499.177,588.391 499.384,588.247 499.589,588.1 499.792,587.949 499.992,587.794 500.19,587.636 500.385,587.474 500.578,587.308 
			500.769,587.139 500.958,586.966 501.144,586.79 501.328,586.61 501.509,586.426 501.688,586.239 501.865,586.047 
			502.039,585.853 502.211,585.655 502.381,585.453 502.549,585.247 502.714,585.038 502.876,584.825 503.037,584.608 
			503.195,584.388 503.35,584.165 503.504,583.937 503.655,583.706 503.803,583.471 503.95,583.233 504.094,582.991 
			504.236,582.745 504.375,582.496 504.512,582.243 504.646,581.987 504.779,581.727 504.909,581.463 505.036,581.195 
			505.161,580.924 505.284,580.65 505.405,580.371 505.523,580.089 505.639,579.804 505.753,579.514 505.864,579.221 
			505.973,578.925 506.079,578.625 506.184,578.321 506.285,578.013 506.385,577.702 506.482,577.388 506.577,577.069 
			506.669,576.747 506.759,576.422 506.847,576.092 506.933,575.759 507.016,575.423 507.097,575.083 507.251,574.391 
			507.396,573.685 507.532,572.965 507.659,572.23 507.776,571.48 507.883,570.716 507.982,569.938 508.071,569.144 508.15,568.337 
			508.22,567.514 508.281,566.677 508.333,565.826 508.375,564.96 508.408,564.079 508.431,563.184 508.445,562.275 		"/>
	</g>
</g>
</svg>
