<?xml version="1.0" encoding="utf-8"?>
<!-- Generator: Adobe Illustrator 24.1.0, SVG Export Plug-In . SVG Version: 6.00 Build 0)  -->
<!DOCTYPE svg PUBLIC "-//W3C//DTD SVG 1.1//EN" "http://www.w3.org/Graphics/SVG/1.1/DTD/svg11.dtd" [
	<!ENTITY ns_extend "http://ns.adobe.com/Extensibility/1.0/">
	<!ENTITY ns_ai "http://ns.adobe.com/AdobeIllustrator/10.0/">
	<!ENTITY ns_graphs "http://ns.adobe.com/Graphs/1.0/">
	<!ENTITY ns_vars "http://ns.adobe.com/Variables/1.0/">
	<!ENTITY ns_imrep "http://ns.adobe.com/ImageReplacement/1.0/">
	<!ENTITY ns_sfw "http://ns.adobe.com/SaveForWeb/1.0/">
	<!ENTITY ns_custom "http://ns.adobe.com/GenericCustomNamespace/1.0/">
	<!ENTITY ns_adobe_xpath "http://ns.adobe.com/XPath/1.0/">
]>
<svg version="1.1" xmlns:x="&ns_extend;" xmlns:i="&ns_ai;" xmlns:graph="&ns_graphs;"
	 xmlns="http://www.w3.org/2000/svg" xmlns:xlink="http://www.w3.org/1999/xlink" x="0px" y="0px" viewBox="0 0 750 750"
	 enable-background="new 0 0 750 750" xml:space="preserve">
<metadata>
	<sfw  xmlns="&ns_sfw;">
		<slices></slices>
		<sliceSourceBounds  bottomLeftOrigin="true" height="13783.691" width="4411.17" x="-4449.17" y="-5022"></sliceSourceBounds>
	</sfw>
</metadata>
<g id="FILL-BACKGROUND">
	<rect y="0" fill="#FFFFFF" width="750" height="750"/>
</g>
<g id="N-DIMENSIONS">
</g>
<g id="N-TEXT">
</g>
<g id="AG-DIAGRAM">
	<g id="POLYLINE_636_">
		<g>
			<g>
				
					<line fill="none" stroke="#00B9D2" stroke-width="3.25" stroke-linecap="round" stroke-linejoin="round" x1="167.366" y1="567.441" x2="169.366" y2="567.441"/>
				
					<line fill="none" stroke="#00B9D2" stroke-width="3.25" stroke-linecap="round" stroke-linejoin="round" stroke-dasharray="3.9736,6.9538" x1="176.32" y1="567.441" x2="577.157" y2="567.441"/>
				
					<line fill="none" stroke="#00B9D2" stroke-width="3.25" stroke-linecap="round" stroke-linejoin="round" x1="580.634" y1="567.441" x2="582.634" y2="567.441"/>
			</g>
		</g>
	</g>
</g>
<g id="AG-DETAIL-DIAGRAM">
</g>
<g id="AG-DETAILS">
	<g id="POLYLINE_91_">
		
			<polygon fill="none" stroke="#00B9D2" stroke-width="2" stroke-linecap="round" stroke-linejoin="round" stroke-miterlimit="10" points="
			382.097,212.836 382.096,212.713 382.093,212.589 382.087,212.466 382.08,212.342 382.07,212.219 382.058,212.096 
			382.044,211.974 382.028,211.851 382.01,211.729 381.99,211.607 381.967,211.486 381.943,211.365 381.916,211.244 
			381.887,211.124 381.856,211.004 381.823,210.885 381.788,210.767 381.751,210.649 381.712,210.532 381.671,210.415 
			381.628,210.299 381.583,210.185 381.536,210.07 381.487,209.957 381.436,209.845 381.383,209.733 381.328,209.622 
			381.271,209.513 381.212,209.404 381.151,209.297 381.089,209.19 381.024,209.085 380.958,208.98 380.89,208.877 380.82,208.775 
			380.749,208.675 380.675,208.575 380.6,208.477 380.524,208.38 380.445,208.285 380.365,208.191 380.284,208.098 380.2,208.007 
			380.116,207.917 380.029,207.829 379.941,207.742 379.852,207.657 379.761,207.573 379.669,207.491 379.575,207.411 
			379.48,207.332 379.383,207.255 379.286,207.179 379.186,207.105 379.086,207.033 378.984,206.963 378.882,206.895 
			378.778,206.828 378.672,206.763 378.566,206.7 378.459,206.639 378.351,206.58 378.241,206.523 378.131,206.467 378.019,206.414 
			377.907,206.362 377.794,206.312 377.68,206.265 377.565,206.219 377.45,206.175 377.334,206.134 377.217,206.094 
			377.099,206.057 376.981,206.021 376.862,205.988 376.742,205.956 376.622,205.927 376.502,205.9 376.381,205.875 
			376.259,205.852 376.138,205.831 376.016,205.812 375.893,205.796 375.77,205.781 375.648,205.769 375.524,205.759 
			375.401,205.751 375.278,205.745 375.154,205.741 375.031,205.739 374.907,205.74 374.784,205.742 374.66,205.747 
			374.537,205.754 374.414,205.763 374.291,205.775 374.168,205.788 374.046,205.804 373.923,205.821 373.801,205.841 
			373.68,205.863 373.559,205.887 373.438,205.913 373.318,205.941 373.198,205.972 373.079,206.004 372.96,206.039 
			372.842,206.075 372.725,206.114 372.608,206.154 372.492,206.197 372.377,206.242 372.263,206.288 372.149,206.337 
			372.037,206.388 371.925,206.44 371.814,206.495 371.704,206.551 371.595,206.609 371.487,206.669 371.38,206.732 
			371.275,206.795 371.17,206.861 371.067,206.929 370.965,206.998 370.864,207.069 370.764,207.142 370.665,207.217 
			370.568,207.293 370.472,207.371 370.378,207.451 370.285,207.532 370.193,207.615 370.103,207.699 370.015,207.785 
			369.927,207.873 369.842,207.962 369.758,208.052 369.675,208.144 369.594,208.238 369.515,208.332 369.438,208.428 
			369.362,208.526 369.288,208.625 369.215,208.725 369.145,208.826 369.076,208.929 369.009,209.032 368.943,209.137 
			368.88,209.243 368.818,209.35 368.758,209.458 368.701,209.567 368.645,209.678 368.591,209.789 368.539,209.901 
			368.489,210.014 368.44,210.127 368.394,210.242 368.35,210.357 368.308,210.473 368.268,210.59 368.23,210.708 368.194,210.826 
			368.16,210.945 368.128,211.064 368.098,211.184 368.07,211.304 368.045,211.425 368.021,211.546 368,211.668 367.981,211.79 
			367.964,211.912 367.948,212.035 367.936,212.158 367.925,212.281 367.916,212.404 367.91,212.527 367.906,212.651 
			367.903,212.774 367.903,212.898 367.906,213.021 367.91,213.145 367.916,213.268 367.925,213.391 367.936,213.514 
			367.948,213.637 367.964,213.76 367.981,213.882 368,214.004 368.021,214.126 368.045,214.247 368.07,214.368 368.098,214.488 
			368.128,214.608 368.16,214.727 368.194,214.846 368.23,214.964 368.268,215.082 368.308,215.199 368.35,215.315 368.394,215.43 
			368.44,215.545 368.489,215.659 368.539,215.771 368.591,215.883 368.645,215.995 368.701,216.105 368.758,216.214 
			368.818,216.322 368.88,216.429 368.943,216.535 369.009,216.64 369.076,216.743 369.145,216.846 369.215,216.947 
			369.288,217.047 369.362,217.146 369.438,217.244 369.515,217.34 369.594,217.435 369.675,217.528 369.758,217.62 369.842,217.71 
			369.927,217.799 370.015,217.887 370.103,217.973 370.193,218.057 370.285,218.14 370.378,218.222 370.472,218.301 
			370.568,218.379 370.665,218.455 370.764,218.53 370.864,218.603 370.965,218.674 371.067,218.743 371.17,218.811 
			371.275,218.877 371.38,218.941 371.487,219.003 371.595,219.063 371.704,219.121 371.814,219.178 371.925,219.232 
			372.037,219.285 372.149,219.335 372.263,219.384 372.377,219.43 372.492,219.475 372.608,219.518 372.725,219.558 
			372.842,219.597 372.96,219.633 373.079,219.668 373.198,219.7 373.318,219.731 373.438,219.759 373.559,219.785 373.68,219.809 
			373.801,219.831 373.923,219.851 374.046,219.868 374.168,219.884 374.291,219.897 374.414,219.909 374.537,219.918 
			374.66,219.925 374.784,219.93 374.907,219.932 375.031,219.933 375.154,219.931 375.278,219.927 375.401,219.922 
			375.524,219.914 375.648,219.903 375.77,219.891 375.893,219.877 376.016,219.86 376.138,219.841 376.259,219.82 376.381,219.797 
			376.502,219.772 376.622,219.745 376.742,219.716 376.862,219.684 376.981,219.651 377.099,219.615 377.217,219.578 
			377.334,219.538 377.45,219.497 377.565,219.453 377.68,219.407 377.794,219.36 377.907,219.31 378.019,219.259 378.131,219.205 
			378.241,219.15 378.351,219.092 378.459,219.033 378.566,218.972 378.672,218.909 378.778,218.844 378.882,218.777 
			378.984,218.709 379.086,218.639 379.186,218.567 379.286,218.493 379.383,218.417 379.48,218.34 379.575,218.262 
			379.669,218.181 379.761,218.099 379.852,218.015 379.941,217.93 380.029,217.843 380.116,217.755 380.2,217.665 380.284,217.574 
			380.365,217.481 380.445,217.387 380.524,217.292 380.6,217.195 380.675,217.097 380.749,216.997 380.82,216.897 380.89,216.795 
			380.958,216.692 381.024,216.588 381.089,216.482 381.151,216.376 381.212,216.268 381.271,216.159 381.328,216.05 
			381.383,215.939 381.436,215.828 381.487,215.715 381.536,215.602 381.583,215.488 381.628,215.373 381.671,215.257 
			381.712,215.14 381.751,215.023 381.788,214.905 381.823,214.787 381.856,214.668 381.887,214.548 381.916,214.428 
			381.943,214.308 381.967,214.187 381.99,214.065 382.01,213.943 382.028,213.821 382.044,213.699 382.058,213.576 382.07,213.453 
			382.08,213.33 382.087,213.206 382.093,213.083 382.096,212.96 		"/>
	</g>
</g>
<g id="AG-DIGITAL">
	<g id="POLYLINE_361_">
		
			<path fill="none" stroke="#00B9D2" stroke-width="2.75" stroke-linecap="round" stroke-linejoin="round" stroke-miterlimit="10" d="
			M499.983,355.956c-0.009-40.456-24.312-75.778-59.143-95.042c-30.025-16.725-66.494-21.081-99.744-12.62
			c-34.549,8.654-65.691,31.454-81.118,63.97c-13.264,27.779-13.266,59.605,0,87.385c15.193,32.031,45.689,54.678,79.636,63.586
			c33.648,8.967,70.754,4.74,101.226-12.237C475.669,431.736,499.976,396.412,499.983,355.956z"/>
	</g>
	<g id="POLYLINE_360_">
		
			<path fill="none" stroke="#00B9D2" stroke-width="2.75" stroke-linecap="round" stroke-linejoin="round" stroke-miterlimit="10" d="
			M499.983,355.956c-0.009-40.456-24.312-75.778-59.143-95.042c-30.025-16.725-66.494-21.081-99.744-12.62
			c-34.549,8.654-65.691,31.454-81.118,63.97c-13.264,27.779-13.266,59.605,0,87.385c15.193,32.031,45.689,54.678,79.636,63.586
			c33.648,8.967,70.754,4.74,101.226-12.237C475.669,431.736,499.976,396.412,499.983,355.956z"/>
	</g>
	<g id="POLYLINE_359_">
		
			<polygon fill="none" stroke="#00B9D2" stroke-width="2.75" stroke-linecap="round" stroke-linejoin="round" stroke-miterlimit="10" points="
			260.962,561.566 261.258,561.748 261.557,561.928 261.858,562.104 262.162,562.278 262.469,562.448 262.779,562.616 
			263.092,562.781 263.408,562.943 263.726,563.102 264.048,563.259 264.372,563.412 264.699,563.563 265.028,563.711 
			265.361,563.855 265.697,563.997 266.035,564.137 266.376,564.273 266.72,564.406 267.067,564.537 267.417,564.664 
			267.769,564.789 268.124,564.911 268.483,565.03 268.844,565.146 269.208,565.26 269.574,565.37 269.944,565.478 270.316,565.582 
			270.691,565.684 271.069,565.783 271.45,565.879 271.834,565.972 272.61,566.15 273.397,566.317 274.196,566.471 275.006,566.615 
			275.827,566.747 276.66,566.867 277.504,566.976 278.36,567.074 279.226,567.16 280.104,567.234 280.994,567.298 281.895,567.349 
			282.807,567.389 283.73,567.418 284.665,567.435 285.611,567.441 464.389,567.441 465.335,567.435 466.27,567.418 
			467.193,567.389 468.105,567.349 469.006,567.298 469.896,567.234 470.774,567.16 471.64,567.074 472.496,566.976 473.34,566.867 
			474.173,566.747 474.994,566.615 475.804,566.471 476.603,566.317 477.39,566.15 478.166,565.972 478.55,565.879 478.931,565.783 
			479.309,565.684 479.684,565.582 480.056,565.478 480.426,565.37 480.792,565.26 481.156,565.146 481.517,565.03 481.876,564.911 
			482.231,564.789 482.583,564.664 482.933,564.537 483.28,564.406 483.624,564.273 483.965,564.137 484.303,563.997 
			484.639,563.855 484.972,563.711 485.301,563.563 485.628,563.412 485.952,563.259 486.274,563.102 486.592,562.943 
			486.908,562.781 487.221,562.616 487.531,562.448 487.838,562.278 488.142,562.104 488.443,561.928 488.742,561.748 
			489.038,561.566 492.018,559.557 494.963,557.495 497.872,555.383 500.744,553.221 503.578,551.009 506.372,548.748 
			509.127,546.439 511.842,544.082 514.515,541.678 517.146,539.229 519.733,536.733 522.277,534.194 524.777,531.61 
			527.231,528.983 529.639,526.314 532,523.604 534.314,520.852 536.579,518.061 538.796,515.231 540.963,512.363 543.08,509.458 
			545.146,506.516 547.161,503.539 549.123,500.527 551.033,497.481 552.889,494.403 554.692,491.293 556.44,488.152 
			558.134,484.981 559.772,481.781 561.354,478.553 562.879,475.298 564.348,472.017 565.76,468.711 567.114,465.381 
			568.409,462.028 569.646,458.653 570.825,455.256 571.944,451.84 573.003,448.405 574.003,444.952 574.942,441.482 
			575.821,437.996 576.639,434.496 577.396,430.982 578.092,427.455 578.726,423.917 579.299,420.368 579.81,416.809 
			580.259,413.243 580.646,409.669 580.97,406.089 581.232,402.504 581.432,398.914 581.57,395.322 581.645,391.728 
			581.657,388.133 581.607,384.539 581.494,380.946 581.319,377.355 581.081,373.768 580.781,370.186 580.419,366.61 
			579.995,363.04 579.509,359.478 578.96,355.926 578.35,352.383 577.679,348.851 576.946,345.332 576.152,341.826 575.297,338.334 
			574.382,334.858 573.406,331.398 572.371,327.956 571.275,324.532 570.12,321.128 568.906,317.744 567.634,314.382 
			566.303,311.043 564.914,307.727 563.468,304.436 561.965,301.171 560.405,297.932 558.789,294.721 557.118,291.538 
			555.391,288.385 553.61,285.263 551.774,282.172 549.886,279.113 547.944,276.088 545.95,273.097 543.904,270.141 
			541.808,267.221 539.66,264.338 537.463,261.493 535.217,258.686 532.922,255.919 530.58,253.192 528.19,250.507 525.754,247.863 
			523.273,245.262 520.746,242.705 518.176,240.192 515.562,237.724 512.906,235.302 510.207,232.927 507.468,230.599 
			504.689,228.318 501.871,226.087 499.014,223.905 496.12,221.773 493.189,219.691 490.223,217.661 487.221,215.683 
			484.186,213.757 481.117,211.885 478.016,210.066 474.885,208.301 471.723,206.591 468.531,204.936 465.312,203.337 
			462.065,201.794 458.792,200.308 455.493,198.879 452.17,197.508 448.824,196.195 445.455,194.94 442.065,193.744 
			438.655,192.607 435.225,191.529 431.778,190.512 428.313,189.554 424.832,188.657 421.336,187.82 417.825,187.045 
			414.302,186.331 410.767,185.678 407.221,185.086 403.666,184.557 400.102,184.089 396.53,183.684 392.952,183.34 
			389.368,183.059 385.78,182.84 382.188,182.684 378.595,182.59 375,182.559 371.405,182.59 367.812,182.684 364.22,182.84 
			360.632,183.059 357.048,183.34 353.47,183.684 349.898,184.089 346.334,184.557 342.779,185.086 339.233,185.678 
			335.698,186.331 332.175,187.045 328.664,187.82 325.168,188.657 321.687,189.554 318.222,190.512 314.775,191.529 
			311.345,192.607 307.935,193.744 304.545,194.94 301.176,196.195 297.83,197.508 294.507,198.879 291.208,200.308 
			287.935,201.794 284.688,203.337 281.469,204.936 278.277,206.591 275.115,208.301 271.984,210.066 268.883,211.885 
			265.814,213.757 262.779,215.683 259.777,217.661 256.811,219.691 253.88,221.773 250.986,223.905 248.129,226.087 
			245.311,228.318 242.532,230.599 239.793,232.927 237.094,235.302 234.438,237.724 231.824,240.192 229.254,242.705 
			226.727,245.262 224.246,247.863 221.81,250.507 219.42,253.192 217.078,255.919 214.783,258.686 212.537,261.493 210.34,264.338 
			208.192,267.221 206.096,270.141 204.05,273.097 202.056,276.088 200.114,279.113 198.226,282.172 196.39,285.263 
			194.609,288.385 192.882,291.538 191.211,294.721 189.595,297.932 188.035,301.171 186.532,304.436 185.086,307.727 
			183.697,311.043 182.366,314.382 181.094,317.744 179.88,321.128 178.725,324.532 177.629,327.956 176.594,331.398 
			175.618,334.858 174.703,338.334 173.848,341.826 173.054,345.332 172.321,348.851 171.65,352.383 171.04,355.926 
			170.491,359.478 170.005,363.04 169.581,366.61 169.218,370.186 168.919,373.768 168.681,377.355 168.506,380.946 
			168.393,384.539 168.343,388.133 168.355,391.728 168.43,395.322 168.568,398.914 168.768,402.504 169.03,406.089 
			169.355,409.669 169.741,413.243 170.19,416.809 170.701,420.368 171.274,423.917 171.908,427.455 172.604,430.982 
			173.361,434.496 174.179,437.996 175.058,441.482 175.997,444.952 176.997,448.405 178.056,451.84 179.175,455.256 
			180.354,458.653 181.591,462.028 182.886,465.381 184.24,468.711 185.652,472.017 187.121,475.298 188.646,478.553 
			190.228,481.781 191.866,484.981 193.56,488.152 195.308,491.293 197.111,494.403 198.967,497.481 200.877,500.527 
			202.839,503.539 204.854,506.516 206.92,509.458 209.037,512.363 211.204,515.231 213.421,518.061 215.686,520.852 218,523.604 
			220.361,526.314 222.769,528.983 225.223,531.61 227.723,534.194 230.267,536.733 232.854,539.229 235.485,541.678 
			238.158,544.082 240.873,546.439 243.628,548.748 246.422,551.009 249.256,553.221 252.128,555.383 255.037,557.495 
			257.982,559.557 		"/>
	</g>
	<g id="POLYLINE_358_">
		
			<path fill="none" stroke="#00B9D2" stroke-width="2.75" stroke-linecap="round" stroke-linejoin="round" stroke-miterlimit="10" d="
			M561.968,355.956c0-60.81-34.2-115.228-85.997-145.939c-48.138-28.714-108.005-35.123-161.341-18.171
			c-47.704,15-89,48.531-110.613,93.958c-21.289,44.479-21.291,95.823,0,140.304c21.615,45.427,62.907,78.957,110.613,93.958
			c53.336,16.951,113.204,10.543,161.341-18.171C527.765,471.186,561.969,416.766,561.968,355.956z"/>
	</g>
	<g id="POLYLINE_356_">
		
			<path fill="none" stroke="#00B9D2" stroke-width="2.75" stroke-linecap="round" stroke-linejoin="round" stroke-miterlimit="10" d="
			M552.479,355.956c0.007-57.927-32.804-109.711-82.27-138.716c-44.869-26.487-100.469-32.668-150.249-17.549
			c-46.318,13.899-86.59,46.11-107.423,90.093c-20.001,41.972-20.002,90.37,0,132.343c20.835,43.984,61.102,76.194,107.423,90.093
			c49.779,15.118,105.381,8.938,150.249-17.549C519.672,465.669,552.488,413.883,552.479,355.956z"/>
	</g>
</g>
<g id="AG-OUTLINE">
	<g id="POLYLINE_33_">
		
			<polygon fill="none" stroke="#00B9D2" stroke-width="3.5" stroke-linecap="round" stroke-linejoin="round" stroke-miterlimit="10" points="
			367.667,182.691 369.5,182.634 371.333,182.593 373.166,182.568 375,182.559 376.86,182.568 378.721,182.593 380.581,182.636 
			382.44,182.695 384.332,182.772 386.228,182.866 388.128,182.978 390.033,183.108 391.941,183.256 393.853,183.423 
			395.768,183.607 397.686,183.81 399.608,184.031 401.531,184.271 403.458,184.529 405.386,184.807 407.316,185.103 
			409.248,185.418 411.181,185.752 413.116,186.106 415.051,186.479 416.986,186.871 418.922,187.282 420.858,187.713 
			422.793,188.163 424.728,188.633 426.662,189.122 428.595,189.631 430.527,190.16 432.456,190.708 434.384,191.276 
			436.309,191.864 438.232,192.471 440.151,193.099 442.068,193.746 443.981,194.413 445.89,195.099 447.795,195.805 
			449.696,196.532 451.592,197.277 453.483,198.043 455.368,198.828 457.248,199.632 459.122,200.456 460.99,201.3 462.851,202.163 
			464.706,203.045 466.553,203.946 468.393,204.867 470.226,205.807 472.05,206.765 473.866,207.743 475.673,208.739 
			477.472,209.754 479.261,210.788 481.041,211.84 482.811,212.91 484.572,213.999 486.322,215.105 488.061,216.23 489.79,217.372 
			491.507,218.531 493.213,219.708 494.907,220.903 496.59,222.114 498.26,223.342 499.918,224.587 501.564,225.849 
			503.196,227.127 504.815,228.42 506.421,229.73 508.013,231.056 509.592,232.397 511.156,233.753 512.706,235.124 
			514.242,236.511 515.763,237.911 517.269,239.326 518.76,240.756 520.235,242.199 521.695,243.655 523.14,245.126 
			524.568,246.609 525.98,248.105 527.377,249.614 528.757,251.135 530.12,252.668 531.466,254.213 532.796,255.77 534.109,257.338 
			535.405,258.917 536.683,260.507 537.944,262.107 539.188,263.717 540.414,265.338 541.622,266.968 542.813,268.607 
			543.985,270.255 545.14,271.913 546.276,273.578 547.395,275.252 548.495,276.934 549.577,278.624 550.64,280.321 
			551.685,282.024 552.712,283.735 553.72,285.452 554.709,287.176 555.68,288.905 556.633,290.64 557.567,292.38 558.482,294.126 
			559.378,295.876 560.256,297.631 561.116,299.39 561.956,301.153 562.778,302.919 563.582,304.689 564.366,306.462 
			565.133,308.238 565.88,310.017 566.609,311.797 567.32,313.58 568.013,315.365 568.687,317.151 569.342,318.938 569.98,320.727 
			570.599,322.516 571.2,324.305 571.783,326.095 572.349,327.885 572.896,329.675 573.443,331.525 573.975,333.386 574.49,335.257 
			574.99,337.139 575.473,339.031 575.94,340.933 576.389,342.844 576.822,344.766 577.238,346.696 577.636,348.636 
			578.016,350.585 578.379,352.542 578.724,354.508 579.05,356.482 579.359,358.465 579.648,360.455 579.919,362.452 
			580.171,364.457 580.404,366.469 580.617,368.488 580.811,370.513 580.986,372.544 581.141,374.582 581.276,376.625 
			581.391,378.674 581.485,380.728 581.56,382.786 581.614,384.85 581.647,386.917 581.66,388.989 581.652,391.064 581.623,393.142 
			581.573,395.224 581.501,397.308 581.409,399.395 581.295,401.484 581.161,403.575 581.004,405.667 580.826,407.761 
			580.627,409.855 580.406,411.95 580.163,414.045 579.899,416.139 579.613,418.234 579.305,420.327 578.975,422.42 578.624,424.51 
			578.251,426.599 577.856,428.686 577.439,430.77 577.001,432.852 576.541,434.93 576.059,437.005 575.556,439.076 575.03,441.143 
			574.484,443.205 573.916,445.262 573.326,447.314 572.715,449.361 572.083,451.401 571.429,453.436 570.755,455.464 
			570.059,457.485 569.343,459.498 568.605,461.505 567.847,463.503 567.069,465.493 566.27,467.475 565.451,469.448 
			564.611,471.412 563.752,473.367 562.873,475.312 561.974,477.246 561.056,479.171 560.119,481.085 559.162,482.988 
			558.186,484.88 557.192,486.76 556.179,488.629 555.148,490.486 554.099,492.33 553.031,494.162 551.946,495.981 550.844,497.787 
			549.724,499.58 548.588,501.36 547.434,503.125 546.264,504.877 545.078,506.614 543.876,508.337 542.658,510.045 
			541.424,511.739 540.176,513.417 538.912,515.081 537.633,516.728 536.34,518.36 535.033,519.977 533.712,521.577 
			532.377,523.161 531.029,524.729 529.668,526.281 528.294,527.816 526.908,529.334 525.509,530.835 524.099,532.32 
			522.676,533.787 521.243,535.237 519.798,536.67 518.343,538.085 516.877,539.482 515.401,540.863 513.915,542.225 
			512.42,543.569 510.915,544.896 509.401,546.205 507.879,547.495 506.348,548.768 504.809,550.023 503.262,551.259 
			501.708,552.477 500.147,553.677 498.578,554.859 497.003,556.023 495.422,557.168 493.834,558.295 492.241,559.404 
			490.642,560.494 489.038,561.566 488.742,561.748 488.443,561.928 488.142,562.104 487.838,562.278 487.531,562.448 
			487.221,562.616 486.908,562.781 486.592,562.943 486.274,563.102 485.952,563.259 485.628,563.412 485.301,563.563 
			484.972,563.711 484.639,563.855 484.303,563.997 483.965,564.137 483.624,564.273 483.28,564.406 482.933,564.537 
			482.583,564.664 482.231,564.789 481.876,564.911 481.517,565.03 481.156,565.146 480.792,565.26 480.426,565.37 480.056,565.478 
			479.684,565.582 479.309,565.684 478.931,565.783 478.55,565.879 478.166,565.972 477.39,566.15 476.603,566.317 475.804,566.471 
			474.994,566.615 474.173,566.747 473.34,566.867 472.496,566.976 471.64,567.074 470.774,567.16 469.896,567.234 469.006,567.298 
			468.105,567.349 467.193,567.389 466.27,567.418 465.335,567.435 464.389,567.441 285.611,567.441 284.665,567.435 
			283.73,567.418 282.807,567.389 281.895,567.349 280.994,567.298 280.104,567.234 279.226,567.16 278.36,567.074 277.504,566.976 
			276.66,566.867 275.827,566.747 275.006,566.615 274.196,566.471 273.397,566.317 272.61,566.15 271.834,565.972 271.45,565.879 
			271.069,565.783 270.691,565.684 270.316,565.582 269.944,565.478 269.574,565.37 269.208,565.26 268.844,565.146 268.483,565.03 
			268.124,564.911 267.769,564.789 267.417,564.664 267.067,564.537 266.72,564.406 266.376,564.273 266.035,564.137 
			265.697,563.997 265.361,563.855 265.028,563.711 264.699,563.563 264.372,563.412 264.048,563.259 263.726,563.102 
			263.408,562.943 263.092,562.781 262.779,562.616 262.469,562.448 262.162,562.278 261.858,562.104 261.557,561.928 
			261.258,561.748 260.962,561.566 259.358,560.494 257.759,559.404 256.166,558.295 254.578,557.168 252.997,556.023 
			251.422,554.859 249.853,553.677 248.292,552.477 246.738,551.259 245.191,550.023 243.652,548.768 242.121,547.495 
			240.599,546.205 239.085,544.896 237.58,543.569 236.085,542.225 234.599,540.863 233.123,539.482 231.657,538.085 
			230.202,536.67 228.757,535.237 227.324,533.787 225.901,532.32 224.491,530.835 223.092,529.334 221.706,527.816 
			220.332,526.281 218.971,524.729 217.623,523.161 216.288,521.577 214.967,519.977 213.66,518.36 212.367,516.728 
			211.088,515.081 209.824,513.417 208.576,511.739 207.342,510.045 206.124,508.337 204.922,506.614 203.736,504.877 
			202.566,503.125 201.412,501.36 200.276,499.58 199.156,497.787 198.054,495.981 196.969,494.162 195.901,492.33 194.852,490.486 
			193.821,488.629 192.808,486.76 191.814,484.88 190.838,482.988 189.881,481.085 188.944,479.171 188.026,477.246 
			187.127,475.312 186.248,473.367 185.389,471.412 184.549,469.448 183.73,467.475 182.931,465.493 182.153,463.503 
			181.395,461.505 180.657,459.498 179.941,457.485 179.245,455.464 178.571,453.436 177.917,451.401 177.285,449.361 
			176.674,447.314 176.084,445.262 175.516,443.205 174.97,441.143 174.444,439.076 173.941,437.005 173.459,434.93 
			172.999,432.852 172.561,430.77 172.144,428.686 171.749,426.599 171.376,424.51 171.025,422.42 170.695,420.327 170.387,418.234 
			170.101,416.139 169.837,414.045 169.594,411.95 169.373,409.855 169.174,407.761 168.996,405.667 168.839,403.575 
			168.705,401.484 168.591,399.395 168.499,397.308 168.427,395.224 168.377,393.142 168.348,391.064 168.34,388.989 
			168.353,386.917 168.386,384.85 168.44,382.786 168.515,380.728 168.609,378.674 168.724,376.625 168.859,374.582 
			169.014,372.544 169.189,370.513 169.383,368.488 169.596,366.469 169.829,364.457 170.081,362.452 170.352,360.455 
			170.641,358.465 170.95,356.482 171.276,354.508 171.621,352.542 171.984,350.585 172.364,348.636 172.762,346.696 
			173.178,344.766 173.611,342.844 174.06,340.933 174.527,339.031 175.01,337.139 175.51,335.257 176.025,333.386 176.557,331.525 
			177.104,329.675 177.652,327.884 178.217,326.094 178.801,324.303 179.402,322.513 180.022,320.723 180.659,318.934 
			181.315,317.145 181.99,315.358 182.683,313.573 183.394,311.789 184.123,310.008 184.872,308.229 185.638,306.452 
			186.423,304.678 187.227,302.907 188.05,301.14 188.891,299.376 189.751,297.617 190.629,295.861 191.526,294.11 192.442,292.364 
			193.376,290.623 194.329,288.887 195.301,287.157 196.291,285.433 197.3,283.715 198.327,282.004 199.373,280.299 
			200.437,278.602 201.52,276.912 202.621,275.229 203.74,273.555 204.877,271.888 206.032,270.231 207.206,268.582 
			208.397,266.942 209.606,265.311 210.833,263.69 212.078,262.079 213.339,260.478 214.619,258.888 215.915,257.309 
			217.229,255.74 218.56,254.183 219.907,252.637 221.272,251.104 222.652,249.582 224.05,248.073 225.463,246.576 226.892,245.093 
			228.338,243.622 229.799,242.165 231.275,240.722 232.767,239.292 234.274,237.877 235.796,236.476 237.333,235.089 
			238.884,233.718 240.449,232.361 242.029,231.02 243.622,229.695 245.229,228.385 246.85,227.091 248.483,225.813 
			250.129,224.551 251.789,223.306 253.46,222.078 255.144,220.866 256.839,219.672 258.546,218.495 260.265,217.335 
			261.995,216.193 263.735,215.069 265.486,213.963 267.247,212.874 269.019,211.804 270.8,210.752 272.59,209.719 274.39,208.704 
			276.199,207.708 278.016,206.73 279.841,205.772 281.674,204.833 283.516,203.912 285.364,203.011 287.22,202.129 
			289.082,201.267 290.951,200.424 292.826,199.6 294.707,198.796 296.594,198.011 298.486,197.246 300.383,196.501 
			302.284,195.776 304.19,195.07 306.101,194.384 308.015,193.717 309.932,193.071 311.853,192.444 313.776,191.837 315.703,191.25 
			317.631,190.683 319.562,190.135 321.494,189.607 323.428,189.099 325.363,188.61 327.299,188.141 329.235,187.691 
			331.172,187.261 333.108,186.851 335.045,186.46 336.981,186.088 338.916,185.735 340.85,185.402 342.782,185.087 
			344.713,184.792 346.642,184.515 348.569,184.258 350.494,184.019 352.416,183.798 354.335,183.597 356.251,183.413 
			358.164,183.248 360.073,183.101 361.978,182.972 363.879,182.86 365.775,182.767 		"/>
	</g>
</g>
</svg>
