<?xml version="1.0" encoding="utf-8"?>
<!-- Generator: Adobe Illustrator 24.1.0, SVG Export Plug-In . SVG Version: 6.00 Build 0)  -->
<!DOCTYPE svg PUBLIC "-//W3C//DTD SVG 1.1//EN" "http://www.w3.org/Graphics/SVG/1.1/DTD/svg11.dtd" [
	<!ENTITY ns_extend "http://ns.adobe.com/Extensibility/1.0/">
	<!ENTITY ns_ai "http://ns.adobe.com/AdobeIllustrator/10.0/">
	<!ENTITY ns_graphs "http://ns.adobe.com/Graphs/1.0/">
	<!ENTITY ns_vars "http://ns.adobe.com/Variables/1.0/">
	<!ENTITY ns_imrep "http://ns.adobe.com/ImageReplacement/1.0/">
	<!ENTITY ns_sfw "http://ns.adobe.com/SaveForWeb/1.0/">
	<!ENTITY ns_custom "http://ns.adobe.com/GenericCustomNamespace/1.0/">
	<!ENTITY ns_adobe_xpath "http://ns.adobe.com/XPath/1.0/">
]>
<svg version="1.1" xmlns:x="&ns_extend;" xmlns:i="&ns_ai;" xmlns:graph="&ns_graphs;"
	 xmlns="http://www.w3.org/2000/svg" xmlns:xlink="http://www.w3.org/1999/xlink" x="0px" y="0px" viewBox="0 0 750 750"
	 enable-background="new 0 0 750 750" xml:space="preserve">
<metadata>
	<sfw  xmlns="&ns_sfw;">
		<slices></slices>
		<sliceSourceBounds  bottomLeftOrigin="true" height="13783.691" width="4411.17" x="-4449.17" y="-5022"></sliceSourceBounds>
	</sfw>
</metadata>
<g id="FILL-BACKGROUND">
	<rect y="0" fill="#FFFFFF" width="750" height="750"/>
</g>
<g id="N-DIMENSIONS">
</g>
<g id="N-TEXT">
</g>
<g id="AG-DIAGRAM">
	<g id="POLYLINE_646_">
		<g>
			<g>
				
					<line fill="none" stroke="#00B9D2" stroke-width="3.25" stroke-linecap="round" stroke-linejoin="round" x1="157.54" y1="564.712" x2="159.54" y2="564.712"/>
				
					<line fill="none" stroke="#00B9D2" stroke-width="3.25" stroke-linecap="round" stroke-linejoin="round" stroke-dasharray="3.9534,6.9184" x1="166.459" y1="564.712" x2="587" y2="564.712"/>
				
					<line fill="none" stroke="#00B9D2" stroke-width="3.25" stroke-linecap="round" stroke-linejoin="round" x1="590.46" y1="564.712" x2="592.46" y2="564.712"/>
			</g>
		</g>
	</g>
</g>
<g id="AG-DETAIL-DIAGRAM">
</g>
<g id="AG-DETAILS">
</g>
<g id="AG-DIGITAL">
	<g id="POLYLINE_370_">
		
			<polyline fill="none" stroke="#00B9D2" stroke-width="2.75" stroke-linecap="round" stroke-linejoin="round" stroke-miterlimit="10" points="
			479.822,539.159 479.657,539.518 479.488,539.871 479.317,540.219 479.142,540.561 478.964,540.898 478.783,541.23 
			478.599,541.555 478.412,541.876 478.222,542.191 478.029,542.502 477.833,542.806 477.635,543.106 477.433,543.401 
			477.229,543.69 477.022,543.975 476.812,544.254 476.6,544.529 476.384,544.798 476.167,545.063 475.947,545.323 475.724,545.578 
			475.499,545.829 475.272,546.074 475.042,546.316 474.809,546.552 474.575,546.784 474.338,547.012 474.099,547.235 
			473.858,547.453 473.615,547.667 473.369,547.877 473.122,548.083 472.872,548.284 472.621,548.482 472.367,548.675 
			472.112,548.864 471.855,549.048 471.596,549.229 471.335,549.406 471.072,549.579 470.808,549.748 470.542,549.913 
			470.274,550.075 470.005,550.233 469.734,550.387 469.462,550.537 469.189,550.683 468.913,550.827 468.637,550.966 
			468.359,551.102 468.08,551.235 467.8,551.364 467.518,551.49 467.235,551.613 466.951,551.732 466.666,551.848 466.38,551.961 
			466.093,552.07 465.804,552.177 465.515,552.281 465.225,552.381 464.934,552.479 464.643,552.574 464.35,552.666 
			464.057,552.755 463.763,552.841 463.468,552.924 463.173,553.005 462.58,553.159 461.986,553.303 461.39,553.436 460.792,553.56 
			460.193,553.675 459.594,553.781 458.994,553.879 458.394,553.968 457.794,554.05 457.194,554.124 456.596,554.191 
			455.998,554.252 455.402,554.306 454.808,554.354 453.625,554.434 452.454,554.493 451.296,554.536 450.154,554.565 
			447.927,554.591 375,554.595 302.073,554.591 299.846,554.565 298.704,554.536 297.546,554.493 296.375,554.434 295.192,554.354 
			294.598,554.306 294.002,554.252 293.404,554.191 292.806,554.124 292.206,554.05 291.606,553.968 291.006,553.879 
			290.406,553.781 289.807,553.675 289.208,553.56 288.61,553.436 288.014,553.303 287.42,553.159 286.827,553.005 286.532,552.924 
			286.237,552.841 285.943,552.755 285.65,552.666 285.357,552.574 285.066,552.479 284.775,552.381 284.485,552.281 
			284.196,552.177 283.907,552.07 283.62,551.961 283.334,551.848 283.049,551.732 282.765,551.613 282.482,551.49 282.2,551.364 
			281.92,551.235 281.641,551.102 281.363,550.966 281.087,550.827 280.811,550.683 280.538,550.537 280.266,550.387 
			279.995,550.233 279.726,550.075 279.458,549.913 279.192,549.748 278.928,549.579 278.665,549.406 278.404,549.229 
			278.145,549.048 277.888,548.864 277.633,548.675 277.379,548.482 277.128,548.284 276.878,548.083 276.631,547.877 
			276.385,547.667 276.142,547.453 275.901,547.235 275.662,547.012 275.425,546.784 275.191,546.552 274.958,546.316 
			274.728,546.074 274.501,545.829 274.276,545.578 274.053,545.323 273.833,545.063 273.616,544.798 273.4,544.529 
			273.188,544.254 272.978,543.975 272.771,543.69 272.567,543.401 272.365,543.106 272.167,542.806 271.971,542.502 
			271.778,542.191 271.588,541.876 271.401,541.555 271.217,541.23 271.036,540.898 270.858,540.561 270.683,540.219 
			270.512,539.871 270.343,539.518 270.178,539.159 		"/>
	</g>
	<g id="POLYLINE_369_">
		
			<polyline fill="none" stroke="#00B9D2" stroke-width="2.75" stroke-linecap="round" stroke-linejoin="round" stroke-miterlimit="10" points="
			543.766,534.258 541.933,535.664 540.104,537.025 538.275,538.343 536.446,539.619 534.616,540.853 532.783,542.046 
			530.945,543.198 529.102,544.311 527.252,545.384 526.324,545.907 525.394,546.419 524.461,546.923 523.525,547.417 
			522.587,547.902 521.646,548.378 520.702,548.844 519.754,549.302 518.803,549.751 517.849,550.191 516.891,550.622 
			515.928,551.045 514.962,551.459 513.991,551.865 513.016,552.262 512.036,552.651 511.051,553.032 510.062,553.405 
			509.067,553.769 508.067,554.126 506.05,554.816 504.01,555.476 501.946,556.105 499.855,556.706 497.737,557.277 
			495.591,557.821 493.414,558.338 491.206,558.828 488.965,559.292 486.689,559.732 484.379,560.146 482.031,560.538 
			479.646,560.906 477.22,561.252 474.754,561.576 472.246,561.879 469.693,562.162 467.096,562.426 464.453,562.671 
			459.021,563.107 453.388,563.476 447.542,563.783 441.472,564.035 435.169,564.237 421.815,564.512 407.393,564.653 375,564.713 
			342.607,564.653 328.185,564.512 314.831,564.237 308.528,564.035 302.458,563.783 296.612,563.476 290.979,563.107 
			285.547,562.671 282.904,562.426 280.307,562.162 277.754,561.879 275.246,561.576 272.78,561.252 270.354,560.906 
			267.969,560.538 265.621,560.146 263.311,559.732 261.035,559.292 258.794,558.828 256.586,558.338 254.409,557.821 
			252.263,557.277 250.145,556.706 248.054,556.105 245.99,555.476 243.95,554.816 241.933,554.126 240.933,553.769 
			239.938,553.405 238.949,553.032 237.964,552.651 236.984,552.262 236.009,551.865 235.038,551.459 234.072,551.045 
			233.109,550.622 232.151,550.191 231.197,549.751 230.246,549.302 229.298,548.844 228.354,548.378 227.413,547.902 
			226.475,547.417 225.539,546.923 224.606,546.419 223.676,545.907 222.748,545.384 220.898,544.311 219.055,543.198 
			217.217,542.046 215.384,540.853 213.554,539.619 211.725,538.343 209.896,537.025 208.067,535.664 206.234,534.258 		"/>
	</g>
	<g id="POLYLINE_137_">
		
			<polygon fill="none" stroke="#00B9D2" stroke-width="2.75" stroke-linecap="round" stroke-linejoin="round" stroke-miterlimit="10" points="
			229.993,539.159 229.419,539.156 228.842,539.148 228.264,539.134 227.683,539.115 227.099,539.09 226.514,539.06 
			225.926,539.023 225.336,538.981 224.745,538.933 224.152,538.878 223.557,538.818 222.961,538.752 222.363,538.679 
			221.764,538.6 221.164,538.515 220.563,538.424 219.961,538.326 219.359,538.222 218.755,538.111 218.152,537.994 217.547,537.87 
			216.943,537.74 216.339,537.603 215.734,537.459 215.13,537.309 214.526,537.152 213.923,536.988 213.32,536.818 212.718,536.64 
			212.117,536.456 211.517,536.265 210.918,536.067 210.321,535.863 209.725,535.651 209.131,535.433 208.539,535.208 
			207.949,534.976 207.361,534.738 206.775,534.492 206.192,534.24 205.612,533.981 205.034,533.715 204.46,533.443 
			203.888,533.164 203.32,532.878 202.755,532.586 202.194,532.287 201.637,531.982 201.083,531.67 200.534,531.352 
			199.988,531.027 199.448,530.696 198.911,530.359 198.38,530.016 197.853,529.667 197.331,529.311 196.814,528.95 
			196.303,528.583 195.796,528.21 195.296,527.832 194.801,527.448 194.312,527.058 193.828,526.663 193.351,526.262 
			192.88,525.857 192.415,525.446 191.956,525.03 191.504,524.61 191.058,524.184 190.62,523.754 190.188,523.32 189.762,522.88 
			189.344,522.437 188.933,521.989 188.529,521.538 188.133,521.082 187.743,520.622 187.361,520.159 186.987,519.692 
			186.62,519.222 186.261,518.748 185.909,518.272 185.565,517.792 185.229,517.309 184.9,516.823 184.58,516.335 184.267,515.844 
			183.962,515.351 183.665,514.855 183.377,514.358 183.096,513.858 182.823,513.357 182.558,512.854 182.301,512.349 
			182.052,511.843 181.812,511.335 181.579,510.827 181.354,510.317 181.137,509.806 180.929,509.295 180.728,508.782 
			180.535,508.27 180.35,507.757 180.174,507.243 180.004,506.73 179.843,506.216 179.69,505.702 179.544,505.189 179.406,504.676 
			179.276,504.163 179.153,503.651 179.038,503.14 178.931,502.629 178.831,502.119 178.738,501.61 178.653,501.102 
			178.574,500.596 178.503,500.09 178.44,499.586 178.383,499.084 178.333,498.583 178.29,498.084 178.254,497.586 178.225,497.09 
			178.202,496.597 178.186,496.105 178.176,495.615 178.173,495.128 178.173,229.319 178.177,228.831 178.189,228.342 
			178.209,227.85 178.237,227.356 178.273,226.86 178.317,226.363 178.37,225.863 178.432,225.362 178.502,224.86 178.58,224.356 
			178.668,223.851 178.764,223.344 178.87,222.836 178.984,222.327 179.108,221.817 179.24,221.307 179.382,220.795 
			179.533,220.283 179.694,219.771 179.864,219.257 180.044,218.744 180.233,218.231 180.432,217.717 180.64,217.203 
			180.858,216.69 181.086,216.177 181.324,215.664 181.572,215.152 181.829,214.64 182.096,214.13 182.373,213.62 182.66,213.111 
			182.957,212.604 183.264,212.097 183.581,211.593 183.908,211.09 184.244,210.588 184.591,210.089 184.947,209.591 
			185.313,209.095 185.689,208.602 186.075,208.111 186.47,207.623 186.875,207.138 187.29,206.655 187.714,206.175 
			188.148,205.698 188.591,205.224 189.043,204.754 189.505,204.287 189.976,203.824 190.456,203.365 190.946,202.909 
			191.444,202.457 191.951,202.009 192.466,201.566 192.991,201.127 193.524,200.692 194.065,200.262 194.614,199.837 
			195.172,199.416 195.737,199 196.311,198.59 196.892,198.184 197.481,197.784 198.077,197.389 198.68,196.999 199.291,196.615 
			199.908,196.236 200.533,195.863 201.163,195.496 201.801,195.135 202.444,194.78 203.094,194.43 203.75,194.087 204.411,193.75 
			205.078,193.419 205.751,193.095 206.428,192.777 207.111,192.465 207.798,192.159 208.49,191.861 209.187,191.568 
			209.888,191.283 210.593,191.004 211.301,190.731 212.014,190.465 212.73,190.206 213.449,189.954 214.171,189.709 
			214.896,189.47 215.624,189.238 216.354,189.013 217.087,188.795 217.821,188.584 218.558,188.379 219.296,188.181 
			220.036,187.99 220.778,187.806 221.52,187.629 222.263,187.458 223.008,187.294 223.752,187.137 224.498,186.987 
			225.989,186.707 227.479,186.452 228.968,186.225 230.454,186.023 231.935,185.846 233.411,185.695 234.879,185.568 
			236.34,185.466 237.792,185.387 239.234,185.331 240.664,185.298 242.083,185.287 507.917,185.287 509.336,185.298 
			510.766,185.331 512.208,185.387 513.66,185.466 515.121,185.568 516.589,185.695 518.065,185.846 519.546,186.023 
			521.032,186.225 522.521,186.452 524.011,186.707 525.502,186.987 526.248,187.137 526.992,187.294 527.737,187.458 
			528.48,187.629 529.222,187.806 529.964,187.99 530.704,188.181 531.442,188.379 532.179,188.584 532.913,188.795 
			533.646,189.013 534.376,189.238 535.104,189.47 535.829,189.709 536.551,189.954 537.27,190.206 537.986,190.465 
			538.699,190.731 539.407,191.004 540.112,191.283 540.813,191.568 541.51,191.861 542.202,192.159 542.889,192.465 
			543.572,192.777 544.249,193.095 544.922,193.419 545.589,193.75 546.25,194.087 546.906,194.43 547.556,194.78 548.199,195.135 
			548.837,195.496 549.467,195.863 550.092,196.236 550.709,196.615 551.32,196.999 551.923,197.389 552.519,197.784 
			553.108,198.184 553.689,198.59 554.263,199 554.828,199.416 555.386,199.837 555.935,200.262 556.476,200.692 557.009,201.127 
			557.534,201.566 558.049,202.009 558.556,202.457 559.054,202.909 559.544,203.365 560.024,203.824 560.495,204.287 
			560.957,204.754 561.409,205.224 561.852,205.698 562.286,206.175 562.71,206.655 563.125,207.138 563.53,207.623 
			563.925,208.111 564.311,208.602 564.687,209.095 565.053,209.591 565.409,210.089 565.756,210.588 566.092,211.09 
			566.419,211.593 566.736,212.097 567.043,212.604 567.34,213.111 567.627,213.62 567.904,214.13 568.171,214.64 568.428,215.152 
			568.676,215.664 568.914,216.177 569.142,216.69 569.36,217.203 569.568,217.717 569.767,218.231 569.956,218.744 
			570.136,219.257 570.306,219.771 570.467,220.283 570.618,220.795 570.76,221.307 570.892,221.817 571.016,222.327 
			571.13,222.836 571.236,223.344 571.332,223.851 571.419,224.356 571.498,224.86 571.568,225.362 571.63,225.863 571.683,226.363 
			571.727,226.86 571.763,227.356 571.791,227.85 571.811,228.342 571.823,228.831 571.827,229.319 571.827,495.128 
			571.824,495.615 571.814,496.105 571.798,496.597 571.775,497.09 571.746,497.586 571.71,498.084 571.667,498.583 
			571.617,499.084 571.56,499.586 571.497,500.09 571.426,500.596 571.347,501.102 571.262,501.61 571.169,502.119 571.069,502.629 
			570.962,503.14 570.847,503.651 570.724,504.163 570.594,504.676 570.456,505.189 570.31,505.702 570.157,506.216 569.996,506.73 
			569.826,507.243 569.65,507.757 569.465,508.27 569.272,508.782 569.071,509.295 568.863,509.806 568.646,510.317 
			568.421,510.827 568.188,511.335 567.948,511.843 567.699,512.349 567.442,512.854 567.177,513.357 566.904,513.858 
			566.623,514.358 566.335,514.855 566.038,515.351 565.733,515.844 565.42,516.335 565.1,516.823 564.771,517.309 564.435,517.792 
			564.091,518.272 563.739,518.748 563.38,519.222 563.013,519.692 562.639,520.159 562.257,520.622 561.867,521.082 
			561.471,521.538 561.067,521.989 560.656,522.437 560.237,522.88 559.812,523.32 559.38,523.754 558.942,524.184 558.496,524.61 
			558.044,525.03 557.585,525.446 557.12,525.857 556.649,526.262 556.172,526.663 555.688,527.058 555.199,527.448 
			554.704,527.832 554.204,528.21 553.697,528.583 553.186,528.95 552.669,529.311 552.147,529.667 551.62,530.016 551.089,530.359 
			550.552,530.696 550.012,531.027 549.466,531.352 548.917,531.67 548.363,531.982 547.806,532.287 547.245,532.586 
			546.68,532.878 546.112,533.164 545.54,533.443 544.966,533.715 544.388,533.981 543.808,534.24 543.225,534.492 542.639,534.738 
			542.051,534.976 541.461,535.208 540.869,535.433 540.275,535.651 539.679,535.863 539.082,536.067 538.483,536.265 
			537.883,536.456 537.282,536.64 536.68,536.818 536.077,536.988 535.474,537.152 534.87,537.309 534.266,537.459 533.661,537.603 
			533.057,537.74 532.453,537.87 531.848,537.994 531.245,538.111 530.641,538.222 530.039,538.326 529.437,538.424 
			528.836,538.515 528.236,538.6 527.637,538.679 527.039,538.752 526.443,538.818 525.848,538.878 525.255,538.933 
			524.664,538.981 524.074,539.023 523.486,539.06 522.901,539.09 522.318,539.115 521.736,539.134 521.158,539.148 
			520.581,539.156 520.007,539.159 		"/>
	</g>
	<g id="POLYLINE_136_">
		
			<line fill="none" stroke="#00B9D2" stroke-width="2.75" stroke-linecap="round" stroke-linejoin="round" stroke-miterlimit="10" x1="195.019" y1="199.53" x2="554.981" y2="199.53"/>
	</g>
</g>
<g id="AG-OUTLINE">
	<g id="POLYLINE_9_">
		
			<polygon fill="none" stroke="#00B9D2" stroke-width="3.5" stroke-linecap="round" stroke-linejoin="round" stroke-miterlimit="10" points="
			206.234,534.258 205.436,533.901 204.643,533.531 203.856,533.148 203.075,532.753 202.301,532.345 201.534,531.925 
			200.775,531.492 200.023,531.048 199.279,530.592 198.545,530.123 197.819,529.644 197.102,529.153 196.396,528.651 
			195.699,528.138 195.013,527.614 194.338,527.079 194.004,526.808 193.674,526.535 193.346,526.258 193.021,525.98 
			192.699,525.699 192.38,525.415 192.065,525.13 191.752,524.842 191.442,524.551 191.135,524.259 190.832,523.964 
			190.532,523.667 190.235,523.367 189.941,523.066 189.65,522.763 189.363,522.457 189.079,522.15 188.799,521.84 188.522,521.529 
			188.248,521.216 187.978,520.901 187.711,520.584 187.448,520.265 187.189,519.945 186.932,519.623 186.68,519.3 186.431,518.974 
			186.186,518.648 185.944,518.32 185.706,517.99 185.472,517.659 185.241,517.326 185.014,516.993 184.79,516.658 184.571,516.321 
			184.355,515.984 184.143,515.645 183.935,515.305 183.73,514.965 183.529,514.623 183.332,514.28 183.139,513.936 
			182.949,513.591 182.764,513.246 182.582,512.9 182.404,512.553 182.229,512.205 182.059,511.857 181.892,511.508 
			181.729,511.158 181.57,510.808 181.415,510.457 181.264,510.106 181.116,509.754 180.972,509.402 180.832,509.05 
			180.696,508.698 180.563,508.345 180.434,507.992 180.309,507.639 180.188,507.285 180.07,506.932 179.956,506.579 
			179.846,506.225 179.74,505.872 179.637,505.518 179.538,505.165 179.442,504.812 179.35,504.459 179.262,504.107 
			179.178,503.754 179.096,503.402 179.019,503.05 178.945,502.699 178.875,502.348 178.808,501.998 178.744,501.647 
			178.685,501.298 178.628,500.949 178.575,500.6 178.525,500.253 178.479,499.905 178.436,499.559 178.397,499.213 
			178.361,498.868 178.328,498.523 178.298,498.18 178.271,497.837 178.248,497.495 178.228,497.154 178.211,496.814 
			178.197,496.475 178.187,496.136 178.179,495.799 178.175,495.463 178.173,495.128 178.173,229.319 178.177,228.856 
			178.187,228.392 178.205,227.925 178.23,227.457 178.263,226.987 178.303,226.516 178.35,226.042 178.406,225.568 
			178.468,225.091 178.539,224.614 178.618,224.135 178.704,223.655 178.799,223.174 178.901,222.692 179.012,222.209 
			179.131,221.725 179.258,221.24 179.394,220.755 179.538,220.269 179.69,219.782 179.851,219.295 180.021,218.808 
			180.199,218.321 180.386,217.834 180.581,217.346 180.785,216.859 180.998,216.372 181.22,215.885 181.451,215.399 
			181.69,214.913 181.939,214.428 182.196,213.944 182.462,213.461 182.737,212.978 183.021,212.497 183.314,212.017 
			183.616,211.538 183.927,211.061 184.246,210.585 184.575,210.111 184.912,209.639 185.258,209.169 185.613,208.7 
			185.977,208.234 186.35,207.77 186.731,207.308 187.121,206.849 187.52,206.393 187.927,205.939 188.343,205.488 188.767,205.04 
			189.2,204.595 189.641,204.153 190.09,203.714 190.548,203.279 191.013,202.847 191.487,202.419 191.968,201.994 192.458,201.573 
			192.955,201.157 193.46,200.744 193.972,200.335 194.492,199.93 195.019,199.53 195.611,199.092 196.213,198.659 196.822,198.232 
			197.44,197.811 198.067,197.395 198.701,196.986 199.343,196.582 199.993,196.185 200.65,195.794 201.315,195.409 
			201.987,195.031 202.665,194.66 203.351,194.295 204.042,193.937 204.74,193.586 205.444,193.241 206.154,192.904 206.87,192.574 
			207.591,192.251 208.317,191.935 209.048,191.626 209.784,191.324 210.524,191.03 211.269,190.743 212.018,190.464 
			212.77,190.192 213.527,189.927 214.286,189.67 215.049,189.421 215.814,189.179 216.583,188.944 217.354,188.717 
			218.127,188.498 218.902,188.286 219.679,188.082 220.457,187.885 221.237,187.696 222.018,187.514 222.8,187.339 
			223.583,187.173 224.366,187.013 225.15,186.861 225.934,186.716 226.717,186.579 227.5,186.449 228.283,186.326 229.065,186.211 
			229.846,186.102 231.405,185.906 232.959,185.739 234.505,185.598 236.042,185.485 237.57,185.397 239.087,185.336 
			240.591,185.299 242.083,185.287 507.917,185.287 509.409,185.299 510.913,185.336 512.43,185.397 513.958,185.485 
			515.495,185.598 517.041,185.739 518.595,185.906 520.154,186.102 520.935,186.211 521.717,186.326 522.5,186.449 
			523.283,186.579 524.066,186.716 524.85,186.861 525.634,187.013 526.417,187.173 527.2,187.339 527.982,187.514 528.763,187.696 
			529.543,187.885 530.321,188.082 531.098,188.286 531.873,188.498 532.646,188.717 533.417,188.944 534.185,189.179 
			534.951,189.421 535.714,189.67 536.473,189.927 537.23,190.192 537.982,190.464 538.731,190.743 539.476,191.03 540.216,191.324 
			540.952,191.626 541.683,191.935 542.409,192.251 543.13,192.574 543.846,192.904 544.556,193.241 545.26,193.586 
			545.958,193.937 546.649,194.295 547.335,194.66 548.013,195.031 548.685,195.409 549.35,195.794 550.007,196.185 
			550.657,196.582 551.299,196.986 551.933,197.395 552.56,197.811 553.178,198.232 553.787,198.659 554.389,199.092 
			554.981,199.53 555.508,199.93 556.028,200.335 556.54,200.744 557.045,201.157 557.542,201.573 558.032,201.994 558.513,202.419 
			558.987,202.847 559.453,203.279 559.91,203.714 560.359,204.153 560.8,204.595 561.233,205.04 561.657,205.488 562.073,205.939 
			562.48,206.393 562.879,206.849 563.269,207.308 563.65,207.77 564.023,208.234 564.387,208.7 564.742,209.169 565.088,209.639 
			565.425,210.111 565.754,210.585 566.073,211.061 566.384,211.538 566.686,212.017 566.979,212.497 567.263,212.978 
			567.538,213.461 567.804,213.944 568.061,214.428 568.31,214.913 568.549,215.399 568.78,215.885 569.002,216.372 
			569.215,216.859 569.419,217.346 569.614,217.834 569.801,218.321 569.979,218.808 570.149,219.295 570.31,219.782 
			570.462,220.269 570.606,220.755 570.742,221.24 570.869,221.725 570.988,222.209 571.099,222.692 571.201,223.174 
			571.296,223.655 571.382,224.135 571.461,224.614 571.531,225.091 571.594,225.568 571.65,226.042 571.697,226.516 
			571.737,226.987 571.77,227.457 571.795,227.925 571.813,228.392 571.823,228.856 571.827,229.319 571.827,495.128 
			571.825,495.463 571.821,495.799 571.813,496.136 571.802,496.475 571.789,496.814 571.772,497.154 571.752,497.495 
			571.729,497.837 571.702,498.18 571.672,498.523 571.639,498.868 571.603,499.213 571.564,499.559 571.521,499.905 
			571.475,500.253 571.425,500.6 571.372,500.949 571.315,501.298 571.255,501.647 571.192,501.998 571.125,502.348 
			571.055,502.699 570.981,503.05 570.904,503.402 570.822,503.754 570.738,504.107 570.65,504.459 570.558,504.812 
			570.462,505.165 570.363,505.518 570.26,505.872 570.154,506.225 570.044,506.579 569.93,506.932 569.812,507.285 
			569.691,507.639 569.566,507.992 569.437,508.345 569.304,508.698 569.168,509.05 569.028,509.402 568.884,509.754 
			568.736,510.106 568.585,510.457 568.43,510.808 568.271,511.158 568.108,511.508 567.941,511.857 567.771,512.205 
			567.596,512.553 567.418,512.9 567.236,513.246 567.051,513.591 566.861,513.936 566.668,514.28 566.471,514.623 566.27,514.965 
			566.065,515.305 565.857,515.645 565.645,515.984 565.429,516.321 565.209,516.658 564.986,516.993 564.759,517.326 
			564.529,517.659 564.294,517.99 564.056,518.32 563.814,518.648 563.569,518.974 563.32,519.3 563.068,519.623 562.811,519.945 
			562.552,520.265 562.289,520.584 562.022,520.901 561.752,521.216 561.478,521.529 561.201,521.84 560.921,522.15 
			560.637,522.457 560.35,522.763 560.059,523.066 559.765,523.367 559.468,523.667 559.168,523.964 558.865,524.259 
			558.558,524.551 558.248,524.842 557.935,525.13 557.62,525.415 557.301,525.699 556.979,525.98 556.654,526.258 556.326,526.535 
			555.996,526.808 555.662,527.079 554.987,527.614 554.301,528.138 553.604,528.651 552.898,529.153 552.181,529.644 
			551.455,530.123 550.721,530.592 549.977,531.048 549.225,531.492 548.466,531.925 547.699,532.345 546.925,532.753 
			546.144,533.148 545.357,533.531 544.564,533.901 543.766,534.258 541.933,535.664 540.104,537.025 538.275,538.343 
			536.446,539.619 534.616,540.853 532.783,542.046 530.945,543.198 529.102,544.311 527.252,545.384 526.324,545.907 
			525.394,546.419 524.461,546.923 523.525,547.417 522.587,547.902 521.646,548.378 520.702,548.844 519.754,549.302 
			518.803,549.751 517.849,550.191 516.891,550.622 515.928,551.045 514.962,551.459 513.991,551.865 513.016,552.262 
			512.036,552.651 511.051,553.032 510.062,553.405 509.067,553.769 508.067,554.126 506.05,554.816 504.01,555.476 
			501.946,556.105 499.855,556.706 497.737,557.277 495.591,557.821 493.414,558.338 491.206,558.828 488.965,559.292 
			486.689,559.732 484.379,560.146 482.031,560.538 479.646,560.906 477.22,561.252 474.754,561.576 472.246,561.879 
			469.693,562.162 467.096,562.426 464.453,562.671 459.021,563.107 453.388,563.476 447.542,563.783 441.472,564.035 
			435.169,564.237 421.815,564.512 375,564.713 328.185,564.512 314.831,564.237 308.528,564.035 302.458,563.783 296.612,563.476 
			290.979,563.107 285.547,562.671 282.904,562.426 280.307,562.162 277.754,561.879 275.246,561.576 272.78,561.252 
			270.354,560.906 267.969,560.538 265.621,560.146 263.311,559.732 261.035,559.292 258.794,558.828 256.586,558.338 
			254.409,557.821 252.263,557.277 250.145,556.706 248.054,556.105 245.99,555.476 243.95,554.816 241.933,554.126 
			240.933,553.769 239.938,553.405 238.949,553.032 237.964,552.651 236.984,552.262 236.009,551.865 235.038,551.459 
			234.072,551.045 233.109,550.622 232.151,550.191 231.197,549.751 230.246,549.302 229.298,548.844 228.354,548.378 
			227.413,547.902 226.475,547.417 225.539,546.923 224.606,546.419 223.676,545.907 222.748,545.384 220.898,544.311 
			219.055,543.198 217.217,542.046 215.384,540.853 213.554,539.619 211.725,538.343 209.896,537.025 208.067,535.664 		"/>
	</g>
</g>
</svg>
