<?xml version="1.0" encoding="utf-8"?>
<!-- Generator: Adobe Illustrator 24.1.0, SVG Export Plug-In . SVG Version: 6.00 Build 0)  -->
<!DOCTYPE svg PUBLIC "-//W3C//DTD SVG 1.1//EN" "http://www.w3.org/Graphics/SVG/1.1/DTD/svg11.dtd" [
	<!ENTITY ns_extend "http://ns.adobe.com/Extensibility/1.0/">
	<!ENTITY ns_ai "http://ns.adobe.com/AdobeIllustrator/10.0/">
	<!ENTITY ns_graphs "http://ns.adobe.com/Graphs/1.0/">
	<!ENTITY ns_vars "http://ns.adobe.com/Variables/1.0/">
	<!ENTITY ns_imrep "http://ns.adobe.com/ImageReplacement/1.0/">
	<!ENTITY ns_sfw "http://ns.adobe.com/SaveForWeb/1.0/">
	<!ENTITY ns_custom "http://ns.adobe.com/GenericCustomNamespace/1.0/">
	<!ENTITY ns_adobe_xpath "http://ns.adobe.com/XPath/1.0/">
]>
<svg version="1.1" xmlns:x="&ns_extend;" xmlns:i="&ns_ai;" xmlns:graph="&ns_graphs;"
	 xmlns="http://www.w3.org/2000/svg" xmlns:xlink="http://www.w3.org/1999/xlink" x="0px" y="0px" viewBox="0 0 750 750"
	 enable-background="new 0 0 750 750" xml:space="preserve">
<metadata>
	<sfw  xmlns="&ns_sfw;">
		<slices></slices>
		<sliceSourceBounds  bottomLeftOrigin="true" height="13783.691" width="4411.17" x="-4449.17" y="-5022"></sliceSourceBounds>
	</sfw>
</metadata>
<g id="FILL-BACKGROUND">
	<rect y="0" fill="#FFFFFF" width="750" height="750"/>
</g>
<g id="N-DIMENSIONS">
</g>
<g id="N-TEXT">
</g>
<g id="AG-DIAGRAM">
	<g id="POLYLINE_650_">
		<g>
			<g>
				
					<line fill="none" stroke="#00B9D2" stroke-width="3.25" stroke-linecap="round" stroke-linejoin="round" x1="101.48" y1="520.859" x2="103.48" y2="520.859"/>
				
					<line fill="none" stroke="#00B9D2" stroke-width="3.25" stroke-linecap="round" stroke-linejoin="round" stroke-dasharray="3.9783,6.9621" x1="110.442" y1="520.859" x2="643.039" y2="520.859"/>
				
					<line fill="none" stroke="#00B9D2" stroke-width="3.25" stroke-linecap="round" stroke-linejoin="round" x1="646.52" y1="520.859" x2="648.52" y2="520.859"/>
			</g>
		</g>
	</g>
</g>
<g id="AG-DETAIL-DIAGRAM">
</g>
<g id="AG-DETAILS">
	<g id="POLYLINE_88_">
		<path fill="none" stroke="#00B9D2" stroke-width="2" stroke-linecap="round" stroke-linejoin="round" stroke-miterlimit="10" d="
			M560.426,251.56c0.009-3.279-2.242-6.192-5.419-7.009c-4.591-1.186-9.058,2.268-9.066,7.009c0.008,4.705,4.413,8.153,8.982,7.03
			C558.141,257.804,560.436,254.872,560.426,251.56z"/>
	</g>
</g>
<g id="AG-DIGITAL">
	<g id="POLYLINE_63_">
		
			<polygon fill="none" stroke="#00B9D2" stroke-width="2.75" stroke-linecap="round" stroke-linejoin="round" stroke-miterlimit="10" points="
			159.376,489.215 159.019,489.213 158.66,489.207 158.3,489.197 157.939,489.183 157.576,489.165 157.212,489.142 156.846,489.116 
			156.479,489.085 156.111,489.049 155.742,489.01 155.372,488.966 155.001,488.917 154.63,488.864 154.257,488.806 
			153.884,488.744 153.51,488.677 153.135,488.605 152.76,488.529 152.385,488.448 152.009,488.362 151.633,488.272 
			151.257,488.176 150.881,488.076 150.505,487.971 150.129,487.861 149.754,487.746 149.378,487.626 149.003,487.501 
			148.629,487.371 148.255,487.236 147.882,487.096 147.509,486.952 147.137,486.802 146.767,486.647 146.397,486.487 
			146.029,486.323 145.662,486.153 145.296,485.978 144.932,485.798 144.569,485.614 144.208,485.424 143.848,485.229 
			143.491,485.03 143.135,484.826 142.782,484.616 142.43,484.402 142.081,484.184 141.735,483.96 141.39,483.732 141.048,483.499 
			140.709,483.261 140.373,483.019 140.039,482.772 139.708,482.521 139.381,482.265 139.056,482.005 138.734,481.741 
			138.416,481.472 138.101,481.199 137.79,480.922 137.482,480.64 137.177,480.355 136.877,480.066 136.58,479.773 136.287,479.476 
			135.997,479.175 135.712,478.871 135.431,478.563 135.154,478.251 134.881,477.936 134.612,477.618 134.347,477.296 
			134.087,476.972 133.831,476.644 133.58,476.313 133.333,475.98 133.091,475.643 132.853,475.304 132.62,474.962 132.392,474.618 
			132.169,474.271 131.95,473.922 131.736,473.57 131.527,473.217 131.322,472.861 131.123,472.504 130.928,472.145 
			130.739,471.783 130.554,471.421 130.374,471.056 130.2,470.691 130.03,470.323 129.865,469.955 129.705,469.586 129.55,469.215 
			129.401,468.843 129.256,468.471 129.116,468.098 128.981,467.724 128.851,467.349 128.727,466.974 128.607,466.599 
			128.492,466.223 128.382,465.847 128.276,465.471 128.176,465.095 128.081,464.719 127.99,464.343 127.904,463.967 
			127.823,463.592 127.747,463.217 127.675,462.843 127.608,462.469 127.546,462.095 127.488,461.723 127.435,461.351 
			127.387,460.98 127.343,460.61 127.303,460.241 127.268,459.873 127.237,459.506 127.21,459.141 127.187,458.776 127.169,458.414 
			127.155,458.052 127.145,457.692 127.139,457.333 127.137,456.976 127.137,268.738 127.139,268.381 127.145,268.023 
			127.155,267.663 127.169,267.301 127.187,266.938 127.21,266.574 127.237,266.208 127.268,265.841 127.303,265.473 
			127.343,265.104 127.387,264.734 127.435,264.364 127.488,263.992 127.546,263.619 127.608,263.246 127.675,262.872 
			127.747,262.497 127.823,262.122 127.904,261.747 127.99,261.371 128.081,260.996 128.176,260.62 128.276,260.243 
			128.382,259.867 128.492,259.491 128.607,259.116 128.727,258.74 128.851,258.365 128.981,257.991 129.116,257.617 
			129.256,257.244 129.401,256.871 129.55,256.5 129.705,256.129 129.865,255.759 130.03,255.391 130.2,255.024 130.374,254.658 
			130.554,254.294 130.739,253.931 130.928,253.57 131.123,253.211 131.322,252.853 131.527,252.498 131.736,252.144 
			131.95,251.793 132.169,251.444 132.392,251.097 132.62,250.752 132.853,250.411 133.091,250.071 133.333,249.735 133.58,249.401 
			133.831,249.071 134.087,248.743 134.347,248.418 134.612,248.097 134.881,247.778 135.154,247.463 135.431,247.152 
			135.712,246.844 135.997,246.54 136.287,246.239 136.58,245.942 136.877,245.649 137.177,245.359 137.482,245.074 137.79,244.793 
			138.101,244.516 138.416,244.243 138.734,243.974 139.056,243.709 139.381,243.449 139.708,243.194 140.039,242.942 
			140.373,242.695 140.709,242.453 141.048,242.216 141.39,241.983 141.735,241.754 142.081,241.531 142.43,241.312 
			142.782,241.098 143.135,240.889 143.491,240.685 143.848,240.485 144.208,240.291 144.569,240.101 144.932,239.916 
			145.296,239.737 145.662,239.562 146.029,239.392 146.397,239.227 146.767,239.067 147.137,238.913 147.509,238.763 
			147.882,238.618 148.255,238.478 148.629,238.343 149.003,238.214 149.378,238.089 149.754,237.969 150.129,237.854 
			150.505,237.744 150.881,237.639 151.257,237.538 151.633,237.443 152.009,237.352 152.385,237.266 152.76,237.185 
			153.135,237.109 153.51,237.038 153.884,236.971 154.257,236.908 154.63,236.851 155.001,236.798 155.372,236.749 
			155.742,236.705 156.111,236.665 156.479,236.63 156.846,236.599 157.212,236.572 157.576,236.55 157.939,236.531 158.3,236.517 
			158.66,236.507 159.019,236.501 159.376,236.499 590.624,236.499 590.981,236.501 591.34,236.507 591.7,236.517 592.061,236.531 
			592.424,236.55 592.788,236.572 593.154,236.599 593.521,236.63 593.889,236.665 594.258,236.705 594.628,236.749 
			594.999,236.798 595.37,236.851 595.743,236.908 596.116,236.971 596.49,237.038 596.865,237.109 597.24,237.185 597.615,237.266 
			597.991,237.352 598.367,237.443 598.743,237.538 599.119,237.639 599.495,237.744 599.871,237.854 600.246,237.969 
			600.622,238.089 600.997,238.214 601.371,238.343 601.745,238.478 602.118,238.618 602.491,238.763 602.863,238.913 
			603.233,239.067 603.603,239.227 603.971,239.392 604.338,239.562 604.704,239.737 605.068,239.916 605.431,240.101 
			605.792,240.291 606.152,240.485 606.509,240.685 606.865,240.889 607.218,241.098 607.57,241.312 607.919,241.531 
			608.265,241.754 608.61,241.983 608.952,242.216 609.291,242.453 609.627,242.695 609.961,242.942 610.292,243.194 
			610.619,243.449 610.944,243.709 611.266,243.974 611.584,244.243 611.899,244.516 612.21,244.793 612.518,245.074 
			612.823,245.359 613.123,245.649 613.42,245.942 613.714,246.239 614.003,246.54 614.288,246.844 614.569,247.152 
			614.846,247.463 615.12,247.778 615.388,248.097 615.653,248.418 615.913,248.743 616.169,249.071 616.42,249.401 
			616.667,249.735 616.909,250.071 617.147,250.411 617.38,250.752 617.608,251.097 617.831,251.444 618.05,251.793 
			618.264,252.144 618.473,252.498 618.678,252.853 618.877,253.211 619.072,253.57 619.261,253.931 619.446,254.294 
			619.626,254.658 619.8,255.024 619.97,255.391 620.135,255.759 620.295,256.129 620.45,256.5 620.599,256.871 620.744,257.244 
			620.884,257.617 621.019,257.991 621.149,258.365 621.273,258.74 621.393,259.116 621.508,259.491 621.618,259.867 
			621.724,260.243 621.824,260.62 621.919,260.996 622.01,261.371 622.096,261.747 622.177,262.122 622.253,262.497 
			622.325,262.872 622.392,263.246 622.454,263.619 622.512,263.992 622.565,264.364 622.613,264.734 622.657,265.104 
			622.697,265.473 622.732,265.841 622.763,266.208 622.79,266.574 622.813,266.938 622.831,267.301 622.845,267.663 
			622.855,268.023 622.861,268.381 622.863,268.738 622.863,456.976 622.861,457.333 622.855,457.692 622.845,458.052 
			622.831,458.414 622.813,458.776 622.79,459.141 622.763,459.506 622.732,459.873 622.697,460.241 622.657,460.61 622.613,460.98 
			622.565,461.351 622.512,461.723 622.454,462.095 622.392,462.469 622.325,462.843 622.253,463.217 622.177,463.592 
			622.096,463.967 622.01,464.343 621.919,464.719 621.824,465.095 621.724,465.471 621.618,465.847 621.508,466.223 
			621.393,466.599 621.273,466.974 621.149,467.349 621.019,467.724 620.884,468.098 620.744,468.471 620.599,468.843 
			620.45,469.215 620.295,469.586 620.135,469.955 619.97,470.323 619.8,470.691 619.626,471.056 619.446,471.421 619.261,471.783 
			619.072,472.145 618.877,472.504 618.678,472.861 618.473,473.217 618.264,473.57 618.05,473.922 617.831,474.271 
			617.608,474.618 617.38,474.962 617.147,475.304 616.909,475.643 616.667,475.98 616.42,476.313 616.169,476.644 615.913,476.972 
			615.653,477.296 615.388,477.618 615.12,477.936 614.846,478.251 614.569,478.563 614.288,478.871 614.003,479.175 
			613.714,479.476 613.42,479.773 613.123,480.066 612.823,480.355 612.518,480.64 612.21,480.922 611.899,481.199 611.584,481.472 
			611.266,481.741 610.944,482.005 610.619,482.265 610.292,482.521 609.961,482.772 609.627,483.019 609.291,483.261 
			608.952,483.499 608.61,483.732 608.265,483.96 607.919,484.184 607.57,484.402 607.218,484.616 606.865,484.826 606.509,485.03 
			606.152,485.229 605.792,485.424 605.431,485.614 605.068,485.798 604.704,485.978 604.338,486.153 603.971,486.323 
			603.603,486.487 603.233,486.647 602.863,486.802 602.491,486.952 602.118,487.096 601.745,487.236 601.371,487.371 
			600.997,487.501 600.622,487.626 600.246,487.746 599.871,487.861 599.495,487.971 599.119,488.076 598.743,488.176 
			598.367,488.272 597.991,488.362 597.615,488.448 597.24,488.529 596.865,488.605 596.49,488.677 596.116,488.744 
			595.743,488.806 595.37,488.864 594.999,488.917 594.628,488.966 594.258,489.01 593.889,489.049 593.521,489.085 
			593.154,489.116 592.788,489.142 592.424,489.165 592.061,489.183 591.7,489.197 591.34,489.207 590.981,489.213 590.624,489.215 
					"/>
	</g>
	<g id="POLYLINE_64_">
		
			<polygon fill="none" stroke="#00B9D2" stroke-width="2.75" stroke-linecap="round" stroke-linejoin="round" stroke-miterlimit="10" points="
			159.376,496.574 158.938,496.572 158.497,496.564 158.055,496.552 157.611,496.535 157.165,496.512 156.717,496.485 
			156.268,496.452 155.818,496.414 155.366,496.37 154.913,496.322 154.458,496.267 154.003,496.208 153.546,496.142 
			153.088,496.072 152.63,495.995 152.171,495.913 151.711,495.825 151.25,495.731 150.789,495.632 150.328,495.526 
			149.866,495.415 149.404,495.298 148.942,495.175 148.48,495.045 148.019,494.91 147.557,494.769 147.096,494.622 
			146.636,494.468 146.176,494.309 145.716,494.143 145.258,493.972 144.8,493.794 144.344,493.61 143.889,493.42 143.435,493.223 
			142.982,493.021 142.531,492.812 142.082,492.598 141.635,492.377 141.189,492.15 140.745,491.917 140.304,491.678 
			139.865,491.433 139.428,491.182 138.994,490.926 138.563,490.663 138.134,490.394 137.708,490.119 137.285,489.839 
			136.865,489.553 136.448,489.261 136.035,488.963 135.625,488.66 135.219,488.352 134.816,488.038 134.418,487.718 
			134.023,487.393 133.632,487.063 133.245,486.728 132.862,486.387 132.484,486.042 132.11,485.691 131.741,485.336 
			131.376,484.976 131.016,484.611 130.661,484.242 130.31,483.868 129.965,483.49 129.625,483.107 129.289,482.72 128.959,482.33 
			128.634,481.935 128.315,481.536 128.001,481.133 127.692,480.727 127.389,480.317 127.091,479.904 126.799,479.487 
			126.513,479.067 126.233,478.645 125.958,478.219 125.69,477.79 125.427,477.358 125.17,476.924 124.919,476.487 124.674,476.048 
			124.435,475.607 124.202,475.163 123.975,474.718 123.754,474.27 123.54,473.821 123.331,473.37 123.129,472.918 122.933,472.464 
			122.743,472.008 122.559,471.552 122.381,471.095 122.209,470.636 122.043,470.177 121.884,469.717 121.731,469.256 
			121.583,468.795 121.442,468.334 121.307,467.872 121.178,467.41 121.054,466.948 120.937,466.486 120.826,466.025 
			120.721,465.563 120.621,465.102 120.527,464.642 120.439,464.182 120.357,463.722 120.281,463.264 120.21,462.806 
			120.145,462.35 120.085,461.894 120.031,461.439 119.982,460.986 119.939,460.534 119.9,460.084 119.868,459.635 119.84,459.187 
			119.818,458.742 119.8,458.297 119.788,457.855 119.781,457.415 119.778,456.976 119.778,268.738 119.781,268.3 119.788,267.859 
			119.8,267.417 119.818,266.973 119.84,266.527 119.868,266.08 119.9,265.631 119.939,265.18 119.982,264.728 120.031,264.275 
			120.085,263.821 120.145,263.365 120.21,262.908 120.281,262.451 120.357,261.992 120.439,261.533 120.527,261.073 
			120.621,260.612 120.721,260.151 120.826,259.69 120.937,259.228 121.054,258.766 121.178,258.304 121.307,257.843 
			121.442,257.381 121.583,256.919 121.731,256.458 121.884,255.998 122.043,255.538 122.209,255.078 122.381,254.62 
			122.559,254.163 122.743,253.706 122.933,253.251 123.129,252.797 123.331,252.344 123.54,251.894 123.754,251.444 
			123.975,250.997 124.202,250.551 124.435,250.108 124.674,249.666 124.919,249.227 125.17,248.79 125.427,248.356 125.69,247.925 
			125.958,247.496 126.233,247.07 126.513,246.647 126.799,246.227 127.091,245.811 127.389,245.397 127.692,244.987 
			128.001,244.581 128.315,244.179 128.634,243.78 128.959,243.385 129.289,242.994 129.625,242.607 129.965,242.225 
			130.31,241.846 130.661,241.473 131.016,241.103 131.376,240.738 131.741,240.378 132.11,240.023 132.484,239.673 
			132.862,239.327 133.245,238.987 133.632,238.651 134.023,238.321 134.418,237.996 134.816,237.677 135.219,237.363 
			135.625,237.054 136.035,236.751 136.448,236.454 136.865,236.162 137.285,235.876 137.708,235.595 138.134,235.321 
			138.563,235.052 138.994,234.789 139.428,234.532 139.865,234.281 140.304,234.036 140.745,233.797 141.189,233.564 
			141.635,233.337 142.082,233.117 142.531,232.902 142.982,232.693 143.435,232.491 143.889,232.295 144.344,232.105 
			144.8,231.921 145.258,231.743 145.716,231.571 146.176,231.406 146.636,231.246 147.096,231.093 147.557,230.945 
			148.019,230.804 148.48,230.669 148.942,230.54 149.404,230.417 149.866,230.299 150.328,230.188 150.789,230.083 151.25,229.983 
			151.711,229.89 152.171,229.802 152.63,229.719 153.088,229.643 153.546,229.572 154.003,229.507 154.458,229.447 
			154.913,229.393 155.366,229.344 155.818,229.301 156.268,229.263 156.717,229.23 157.165,229.202 157.611,229.18 
			158.055,229.163 158.497,229.15 158.938,229.143 159.376,229.141 590.624,229.141 591.062,229.143 591.503,229.15 
			591.945,229.163 592.389,229.18 592.835,229.202 593.283,229.23 593.732,229.263 594.182,229.301 594.634,229.344 
			595.087,229.393 595.542,229.447 595.997,229.507 596.454,229.572 596.911,229.643 597.37,229.719 597.829,229.802 
			598.289,229.89 598.75,229.983 599.211,230.083 599.672,230.188 600.134,230.299 600.596,230.417 601.058,230.54 601.52,230.669 
			601.981,230.804 602.443,230.945 602.904,231.093 603.365,231.246 603.824,231.406 604.284,231.571 604.742,231.743 
			605.2,231.921 605.656,232.105 606.111,232.295 606.565,232.491 607.018,232.693 607.469,232.902 607.918,233.117 
			608.365,233.337 608.811,233.564 609.255,233.797 609.696,234.036 610.135,234.281 610.572,234.532 611.006,234.789 
			611.438,235.052 611.866,235.321 612.292,235.595 612.715,235.876 613.135,236.162 613.552,236.454 613.965,236.751 
			614.375,237.054 614.781,237.363 615.184,237.677 615.582,237.996 615.977,238.321 616.368,238.651 616.755,238.987 
			617.138,239.327 617.516,239.673 617.89,240.023 618.259,240.378 618.624,240.738 618.984,241.103 619.339,241.473 
			619.69,241.846 620.035,242.225 620.375,242.607 620.711,242.994 621.041,243.385 621.366,243.78 621.685,244.179 
			621.999,244.581 622.308,244.987 622.611,245.397 622.909,245.811 623.201,246.227 623.487,246.647 623.767,247.07 
			624.042,247.496 624.31,247.925 624.573,248.356 624.83,248.79 625.081,249.227 625.326,249.666 625.565,250.108 625.798,250.551 
			626.025,250.997 626.246,251.444 626.46,251.894 626.669,252.344 626.871,252.797 627.067,253.251 627.257,253.706 
			627.441,254.163 627.619,254.62 627.791,255.078 627.957,255.538 628.116,255.998 628.269,256.458 628.417,256.919 
			628.558,257.381 628.693,257.843 628.822,258.304 628.945,258.766 629.063,259.228 629.174,259.69 629.279,260.151 
			629.379,260.612 629.473,261.073 629.561,261.533 629.643,261.992 629.719,262.451 629.79,262.908 629.855,263.365 
			629.915,263.821 629.969,264.275 630.018,264.728 630.062,265.18 630.1,265.631 630.132,266.08 630.16,266.527 630.182,266.973 
			630.2,267.417 630.212,267.859 630.219,268.3 630.222,268.738 630.222,456.976 630.219,457.415 630.212,457.855 630.2,458.297 
			630.182,458.742 630.16,459.187 630.132,459.635 630.1,460.084 630.062,460.534 630.018,460.986 629.969,461.439 629.915,461.894 
			629.855,462.35 629.79,462.806 629.719,463.264 629.643,463.722 629.561,464.182 629.473,464.642 629.379,465.102 
			629.279,465.563 629.174,466.025 629.063,466.486 628.945,466.948 628.822,467.41 628.693,467.872 628.558,468.334 
			628.417,468.795 628.269,469.256 628.116,469.717 627.957,470.177 627.791,470.636 627.619,471.095 627.441,471.552 
			627.257,472.008 627.067,472.464 626.871,472.918 626.669,473.37 626.46,473.821 626.246,474.27 626.025,474.718 625.798,475.163 
			625.565,475.607 625.326,476.048 625.081,476.487 624.83,476.924 624.573,477.358 624.31,477.79 624.042,478.219 623.767,478.645 
			623.487,479.067 623.201,479.487 622.909,479.904 622.611,480.317 622.308,480.727 621.999,481.133 621.685,481.536 
			621.366,481.935 621.041,482.33 620.711,482.72 620.375,483.107 620.035,483.49 619.69,483.868 619.339,484.242 618.984,484.611 
			618.624,484.976 618.259,485.336 617.89,485.691 617.516,486.042 617.138,486.387 616.755,486.728 616.368,487.063 
			615.977,487.393 615.582,487.718 615.184,488.038 614.781,488.352 614.375,488.66 613.965,488.963 613.552,489.261 
			613.135,489.553 612.715,489.839 612.292,490.119 611.866,490.394 611.438,490.663 611.006,490.926 610.572,491.182 
			610.135,491.433 609.696,491.678 609.255,491.917 608.811,492.15 608.365,492.377 607.918,492.598 607.469,492.812 
			607.018,493.021 606.565,493.223 606.111,493.42 605.656,493.61 605.2,493.794 604.742,493.972 604.284,494.143 603.824,494.309 
			603.365,494.468 602.904,494.622 602.443,494.769 601.981,494.91 601.52,495.045 601.058,495.175 600.596,495.298 
			600.134,495.415 599.672,495.526 599.211,495.632 598.75,495.731 598.289,495.825 597.829,495.913 597.37,495.995 
			596.911,496.072 596.454,496.142 595.997,496.208 595.542,496.267 595.087,496.322 594.634,496.37 594.182,496.414 
			593.732,496.452 593.283,496.485 592.835,496.512 592.389,496.535 591.945,496.552 591.503,496.564 591.062,496.572 
			590.624,496.574 		"/>
	</g>
	<g id="POLYLINE_65_">
		
			<rect x="156.689" y="266.314" fill="none" stroke="#00B9D2" stroke-width="2.75" stroke-linecap="round" stroke-linejoin="round" stroke-miterlimit="10" width="436.622" height="193.086"/>
	</g>
	<g id="POLYLINE_76_">
		
			<polyline fill="none" stroke="#00B9D2" stroke-width="2.75" stroke-linecap="round" stroke-linejoin="round" stroke-miterlimit="10" points="
			630.222,456.976 630.222,481.262 630.216,481.945 630.198,482.629 630.169,483.311 630.127,483.994 630.074,484.675 
			630.009,485.356 629.933,486.035 629.845,486.713 629.745,487.389 629.633,488.063 629.51,488.735 629.375,489.405 
			629.229,490.073 629.071,490.738 628.902,491.4 628.721,492.06 628.529,492.716 628.326,493.368 628.111,494.017 627.885,494.662 
			627.648,495.303 627.401,495.94 627.142,496.573 626.872,497.201 626.591,497.824 626.3,498.443 625.998,499.056 625.686,499.664 
			625.363,500.266 625.03,500.863 624.686,501.454 624.333,502.039 623.969,502.618 623.596,503.19 623.212,503.756 
			622.819,504.315 622.416,504.867 622.004,505.413 621.583,505.951 621.152,506.481 620.712,507.004 620.263,507.52 
			619.806,508.028 619.339,508.527 618.864,509.019 618.381,509.502 617.89,509.977 617.39,510.443 616.882,510.901 616.367,511.35 
			615.843,511.79 615.313,512.221 614.775,512.642 614.229,513.054 613.677,513.457 613.118,513.85 612.552,514.233 611.98,514.607 
			611.401,514.971 610.816,515.324 610.225,515.668 609.628,516.001 609.026,516.324 608.418,516.636 607.805,516.938 
			607.186,517.229 606.563,517.51 605.935,517.78 605.302,518.038 604.666,518.286 604.024,518.523 603.379,518.749 602.73,518.963 
			602.078,519.167 601.422,519.359 600.763,519.54 600.1,519.709 599.435,519.867 598.768,520.013 598.098,520.148 597.425,520.271 
			596.751,520.383 596.075,520.483 595.397,520.571 594.718,520.647 594.037,520.712 593.356,520.765 592.674,520.806 
			591.991,520.836 591.307,520.854 590.624,520.859 159.376,520.859 158.693,520.854 158.009,520.836 157.326,520.806 
			156.644,520.765 155.963,520.712 155.282,520.647 154.603,520.571 153.925,520.483 153.249,520.383 152.575,520.271 
			151.902,520.148 151.232,520.013 150.565,519.867 149.9,519.709 149.237,519.54 148.578,519.359 147.922,519.167 147.27,518.963 
			146.621,518.749 145.976,518.523 145.334,518.286 144.698,518.038 144.065,517.78 143.437,517.51 142.814,517.229 
			142.195,516.938 141.582,516.636 140.974,516.324 140.372,516.001 139.775,515.668 139.184,515.324 138.599,514.971 
			138.02,514.607 137.448,514.233 136.882,513.85 136.323,513.457 135.771,513.054 135.225,512.642 134.687,512.221 134.157,511.79 
			133.633,511.35 133.118,510.901 132.61,510.443 132.111,509.977 131.619,509.502 131.136,509.019 130.661,508.527 
			130.194,508.028 129.737,507.52 129.288,507.004 128.848,506.481 128.417,505.951 127.996,505.413 127.584,504.867 
			127.181,504.315 126.788,503.756 126.404,503.19 126.031,502.618 125.667,502.039 125.314,501.454 124.97,500.863 
			124.637,500.266 124.314,499.664 124.002,499.056 123.7,498.443 123.408,497.824 123.128,497.201 122.858,496.573 122.599,495.94 
			122.352,495.303 122.115,494.662 121.889,494.017 121.674,493.368 121.471,492.716 121.279,492.06 121.098,491.4 120.929,490.738 
			120.771,490.073 120.625,489.405 120.49,488.735 120.367,488.063 120.255,487.389 120.155,486.713 120.067,486.035 
			119.991,485.356 119.926,484.675 119.873,483.994 119.831,483.311 119.802,482.629 119.784,481.945 119.778,481.262 
			119.778,456.976 		"/>
	</g>
</g>
<g id="AG-OUTLINE">
	<g id="POLYLINE_56_">
		
			<polygon fill="none" stroke="#00B9D2" stroke-width="3.5" stroke-linecap="round" stroke-linejoin="round" stroke-miterlimit="10" points="
			119.778,456.976 119.778,268.738 119.781,268.3 119.788,267.859 119.8,267.417 119.818,266.973 119.84,266.527 119.868,266.08 
			119.9,265.631 119.939,265.18 119.982,264.728 120.031,264.275 120.085,263.821 120.145,263.365 120.21,262.908 120.281,262.451 
			120.357,261.992 120.439,261.533 120.527,261.073 120.621,260.612 120.721,260.151 120.826,259.69 120.937,259.228 
			121.054,258.766 121.178,258.304 121.307,257.843 121.442,257.381 121.583,256.919 121.731,256.458 121.884,255.998 
			122.043,255.538 122.209,255.078 122.381,254.62 122.559,254.163 122.743,253.706 122.933,253.251 123.129,252.797 
			123.331,252.344 123.54,251.894 123.754,251.444 123.975,250.997 124.202,250.551 124.435,250.108 124.674,249.666 
			124.919,249.227 125.17,248.79 125.427,248.356 125.69,247.925 125.958,247.496 126.233,247.07 126.513,246.647 126.799,246.227 
			127.091,245.811 127.389,245.397 127.692,244.987 128.001,244.581 128.315,244.179 128.634,243.78 128.959,243.385 
			129.289,242.994 129.625,242.607 129.965,242.225 130.31,241.846 130.661,241.473 131.016,241.103 131.376,240.738 
			131.741,240.378 132.11,240.023 132.484,239.673 132.862,239.327 133.245,238.987 133.632,238.651 134.023,238.321 
			134.418,237.996 134.816,237.677 135.219,237.363 135.625,237.054 136.035,236.751 136.448,236.454 136.865,236.162 
			137.285,235.876 137.708,235.595 138.134,235.321 138.563,235.052 138.994,234.789 139.428,234.532 139.865,234.281 
			140.304,234.036 140.745,233.797 141.189,233.564 141.635,233.337 142.082,233.117 142.531,232.902 142.982,232.693 
			143.435,232.491 143.889,232.295 144.344,232.105 144.8,231.921 145.258,231.743 145.716,231.571 146.176,231.406 
			146.636,231.246 147.096,231.093 147.557,230.945 148.019,230.804 148.48,230.669 148.942,230.54 149.404,230.417 
			149.866,230.299 150.328,230.188 150.789,230.083 151.25,229.983 151.711,229.89 152.171,229.802 152.63,229.719 153.088,229.643 
			153.546,229.572 154.003,229.507 154.458,229.447 154.913,229.393 155.366,229.344 155.818,229.301 156.268,229.263 
			156.717,229.23 157.165,229.202 157.611,229.18 158.055,229.163 158.497,229.15 158.938,229.143 159.376,229.141 590.624,229.141 
			591.062,229.143 591.503,229.15 591.945,229.163 592.389,229.18 592.835,229.202 593.283,229.23 593.732,229.263 594.182,229.301 
			594.634,229.344 595.087,229.393 595.542,229.447 595.997,229.507 596.454,229.572 596.911,229.643 597.37,229.719 
			597.829,229.802 598.289,229.89 598.75,229.983 599.211,230.083 599.672,230.188 600.134,230.299 600.596,230.417 601.058,230.54 
			601.52,230.669 601.981,230.804 602.443,230.945 602.904,231.093 603.365,231.246 603.824,231.406 604.284,231.571 
			604.742,231.743 605.2,231.921 605.656,232.105 606.111,232.295 606.565,232.491 607.018,232.693 607.469,232.902 
			607.918,233.117 608.365,233.337 608.811,233.564 609.255,233.797 609.696,234.036 610.135,234.281 610.572,234.532 
			611.006,234.789 611.438,235.052 611.866,235.321 612.292,235.595 612.715,235.876 613.135,236.162 613.552,236.454 
			613.965,236.751 614.375,237.054 614.781,237.363 615.184,237.677 615.582,237.996 615.977,238.321 616.368,238.651 
			616.755,238.987 617.138,239.327 617.516,239.673 617.89,240.023 618.259,240.378 618.624,240.738 618.984,241.103 
			619.339,241.473 619.69,241.846 620.035,242.225 620.375,242.607 620.711,242.994 621.041,243.385 621.366,243.78 
			621.685,244.179 621.999,244.581 622.308,244.987 622.611,245.397 622.909,245.811 623.201,246.227 623.487,246.647 
			623.767,247.07 624.042,247.496 624.31,247.925 624.573,248.356 624.83,248.79 625.081,249.227 625.326,249.666 625.565,250.108 
			625.798,250.551 626.025,250.997 626.246,251.444 626.46,251.894 626.669,252.344 626.871,252.797 627.067,253.251 
			627.257,253.706 627.441,254.163 627.619,254.62 627.791,255.078 627.957,255.538 628.116,255.998 628.269,256.458 
			628.417,256.919 628.558,257.381 628.693,257.843 628.822,258.304 628.945,258.766 629.063,259.228 629.174,259.69 
			629.279,260.151 629.379,260.612 629.473,261.073 629.561,261.533 629.643,261.992 629.719,262.451 629.79,262.908 
			629.855,263.365 629.915,263.821 629.969,264.275 630.018,264.728 630.062,265.18 630.1,265.631 630.132,266.08 630.16,266.527 
			630.182,266.973 630.2,267.417 630.212,267.859 630.219,268.3 630.222,268.738 630.222,456.976 630.222,481.262 630.219,481.7 
			630.212,482.141 630.2,482.583 630.182,483.027 630.16,483.473 630.132,483.92 630.1,484.369 630.062,484.82 630.018,485.272 
			629.969,485.725 629.915,486.179 629.855,486.635 629.79,487.092 629.719,487.549 629.643,488.008 629.561,488.467 
			629.473,488.927 629.379,489.388 629.279,489.849 629.174,490.31 629.063,490.772 628.945,491.234 628.822,491.696 
			628.693,492.157 628.558,492.619 628.417,493.081 628.269,493.542 628.116,494.002 627.957,494.462 627.791,494.922 
			627.619,495.38 627.441,495.837 627.257,496.294 627.067,496.749 626.871,497.203 626.669,497.656 626.46,498.106 
			626.246,498.556 626.025,499.003 625.798,499.449 625.565,499.892 625.326,500.334 625.081,500.773 624.83,501.21 
			624.573,501.644 624.31,502.075 624.042,502.504 623.767,502.93 623.487,503.353 623.201,503.773 622.909,504.189 
			622.611,504.603 622.308,505.013 621.999,505.419 621.685,505.821 621.366,506.22 621.041,506.615 620.711,507.006 
			620.375,507.393 620.035,507.775 619.69,508.154 619.339,508.527 618.984,508.897 618.624,509.262 618.259,509.622 
			617.89,509.977 617.516,510.327 617.138,510.673 616.755,511.013 616.368,511.349 615.977,511.679 615.582,512.004 
			615.184,512.323 614.781,512.637 614.375,512.946 613.965,513.249 613.552,513.546 613.135,513.838 612.715,514.124 
			612.292,514.405 611.866,514.679 611.438,514.948 611.006,515.211 610.572,515.468 610.135,515.719 609.696,515.964 
			609.255,516.203 608.811,516.436 608.365,516.663 607.918,516.883 607.469,517.098 607.018,517.307 606.565,517.509 
			606.111,517.705 605.656,517.895 605.2,518.079 604.742,518.257 604.284,518.429 603.824,518.594 603.365,518.754 
			602.904,518.907 602.443,519.055 601.981,519.196 601.52,519.331 601.058,519.46 600.596,519.583 600.134,519.701 
			599.672,519.812 599.211,519.917 598.75,520.017 598.289,520.11 597.829,520.198 597.37,520.281 596.911,520.357 596.454,520.428 
			595.997,520.493 595.542,520.553 595.087,520.607 594.634,520.656 594.182,520.699 593.732,520.737 593.283,520.77 
			592.835,520.798 592.389,520.82 591.945,520.837 591.503,520.85 591.062,520.857 590.624,520.859 159.376,520.859 
			158.938,520.857 158.497,520.85 158.055,520.837 157.611,520.82 157.165,520.798 156.717,520.77 156.268,520.737 155.818,520.699 
			155.366,520.656 154.913,520.607 154.458,520.553 154.003,520.493 153.546,520.428 153.088,520.357 152.63,520.281 
			152.171,520.198 151.711,520.11 151.25,520.017 150.789,519.917 150.328,519.812 149.866,519.701 149.404,519.583 148.942,519.46 
			148.48,519.331 148.019,519.196 147.557,519.055 147.096,518.907 146.636,518.754 146.176,518.594 145.716,518.429 
			145.258,518.257 144.8,518.079 144.344,517.895 143.889,517.705 143.435,517.509 142.982,517.307 142.531,517.098 
			142.082,516.883 141.635,516.663 141.189,516.436 140.745,516.203 140.304,515.964 139.865,515.719 139.428,515.468 
			138.994,515.211 138.563,514.948 138.134,514.679 137.708,514.405 137.285,514.124 136.865,513.838 136.448,513.546 
			136.035,513.249 135.625,512.946 135.219,512.637 134.816,512.323 134.418,512.004 134.023,511.679 133.632,511.349 
			133.245,511.013 132.862,510.673 132.484,510.327 132.11,509.977 131.741,509.622 131.376,509.262 131.016,508.897 
			130.661,508.527 130.31,508.154 129.965,507.775 129.625,507.393 129.289,507.006 128.959,506.615 128.634,506.22 
			128.315,505.821 128.001,505.419 127.692,505.013 127.389,504.603 127.091,504.189 126.799,503.773 126.513,503.353 
			126.233,502.93 125.958,502.504 125.69,502.075 125.427,501.644 125.17,501.21 124.919,500.773 124.674,500.334 124.435,499.892 
			124.202,499.449 123.975,499.003 123.754,498.556 123.54,498.106 123.331,497.656 123.129,497.203 122.933,496.749 
			122.743,496.294 122.559,495.837 122.381,495.38 122.209,494.922 122.043,494.462 121.884,494.002 121.731,493.542 
			121.583,493.081 121.442,492.619 121.307,492.157 121.178,491.696 121.054,491.234 120.937,490.772 120.826,490.31 
			120.721,489.849 120.621,489.388 120.527,488.927 120.439,488.467 120.357,488.008 120.281,487.549 120.21,487.092 
			120.145,486.635 120.085,486.179 120.031,485.725 119.982,485.272 119.939,484.82 119.9,484.369 119.868,483.92 119.84,483.473 
			119.818,483.027 119.8,482.583 119.788,482.141 119.781,481.7 119.778,481.262 		"/>
	</g>
</g>
</svg>
