<?xml version="1.0" encoding="utf-8"?>
<!-- Generator: Adobe Illustrator 24.1.0, SVG Export Plug-In . SVG Version: 6.00 Build 0)  -->
<!DOCTYPE svg PUBLIC "-//W3C//DTD SVG 1.1//EN" "http://www.w3.org/Graphics/SVG/1.1/DTD/svg11.dtd" [
	<!ENTITY ns_extend "http://ns.adobe.com/Extensibility/1.0/">
	<!ENTITY ns_ai "http://ns.adobe.com/AdobeIllustrator/10.0/">
	<!ENTITY ns_graphs "http://ns.adobe.com/Graphs/1.0/">
	<!ENTITY ns_vars "http://ns.adobe.com/Variables/1.0/">
	<!ENTITY ns_imrep "http://ns.adobe.com/ImageReplacement/1.0/">
	<!ENTITY ns_sfw "http://ns.adobe.com/SaveForWeb/1.0/">
	<!ENTITY ns_custom "http://ns.adobe.com/GenericCustomNamespace/1.0/">
	<!ENTITY ns_adobe_xpath "http://ns.adobe.com/XPath/1.0/">
]>
<svg version="1.1" xmlns:x="&ns_extend;" xmlns:i="&ns_ai;" xmlns:graph="&ns_graphs;"
	 xmlns="http://www.w3.org/2000/svg" xmlns:xlink="http://www.w3.org/1999/xlink" x="0px" y="0px" viewBox="0 0 750 750"
	 enable-background="new 0 0 750 750" xml:space="preserve">
<metadata>
	<sfw  xmlns="&ns_sfw;">
		<slices></slices>
		<sliceSourceBounds  bottomLeftOrigin="true" height="13783.691" width="4411.17" x="-4449.17" y="-5022"></sliceSourceBounds>
	</sfw>
</metadata>
<g id="FILL-BACKGROUND">
	<rect y="0" fill="#FFFFFF" width="750" height="750"/>
</g>
<g id="N-DIMENSIONS">
</g>
<g id="N-TEXT">
</g>
<g id="AG-DIAGRAM">
	<g id="POLYLINE_641_">
		<g>
			<g>
				
					<line fill="none" stroke="#00B9D2" stroke-width="3.25" stroke-linecap="round" stroke-linejoin="round" x1="133.802" y1="463.705" x2="135.802" y2="463.705"/>
				
					<line fill="none" stroke="#00B9D2" stroke-width="3.25" stroke-linecap="round" stroke-linejoin="round" stroke-dasharray="3.9866,6.9766" x1="142.779" y1="463.705" x2="610.709" y2="463.705"/>
				
					<line fill="none" stroke="#00B9D2" stroke-width="3.25" stroke-linecap="round" stroke-linejoin="round" x1="614.198" y1="463.705" x2="616.198" y2="463.705"/>
			</g>
		</g>
	</g>
</g>
<g id="AG-DETAIL-DIAGRAM">
</g>
<g id="AG-DETAILS">
</g>
<g id="AG-DIGITAL">
	<g id="POLYLINE_34_">
		
			<polyline fill="none" stroke="#00B9D2" stroke-width="2.75" stroke-linecap="round" stroke-linejoin="round" stroke-miterlimit="10" points="
			177.097,451.814 176.672,451.812 176.251,451.806 175.833,451.795 175.419,451.781 175.008,451.761 174.6,451.738 
			174.195,451.711 173.794,451.679 173.397,451.643 173.002,451.603 172.611,451.558 172.223,451.509 171.839,451.457 
			171.457,451.399 171.08,451.338 170.705,451.272 170.334,451.202 169.966,451.128 169.602,451.05 169.24,450.967 168.883,450.881 
			168.528,450.789 168.177,450.694 167.829,450.595 167.484,450.491 167.143,450.383 166.805,450.271 166.471,450.154 
			166.14,450.033 165.812,449.908 165.487,449.779 165.166,449.646 164.848,449.508 164.533,449.366 164.222,449.22 163.914,449.07 
			163.61,448.915 163.308,448.756 163.01,448.593 162.716,448.426 162.425,448.255 162.137,448.079 161.852,447.899 
			161.571,447.715 161.293,447.526 161.018,447.333 160.747,447.136 160.479,446.935 160.214,446.73 159.953,446.52 
			159.695,446.306 159.44,446.088 159.189,445.866 158.941,445.639 158.696,445.408 158.455,445.173 158.217,444.934 
			157.982,444.69 157.751,444.443 157.523,444.191 157.298,443.934 157.077,443.674 156.859,443.409 156.644,443.14 
			156.433,442.867 156.225,442.59 156.02,442.308 155.818,442.022 155.62,441.732 155.426,441.438 155.234,441.139 155.046,440.836 
			154.861,440.529 154.68,440.218 154.502,439.902 154.327,439.583 154.156,439.258 153.988,438.93 153.823,438.598 
			153.661,438.261 153.503,437.92 153.348,437.575 153.197,437.225 153.049,436.872 152.904,436.514 152.762,436.152 
			152.624,435.785 152.49,435.415 152.358,435.04 152.23,434.661 152.105,434.278 151.984,433.89 151.865,433.498 151.75,433.102 
			151.639,432.702 151.531,432.298 151.426,431.889 151.324,431.476 151.226,431.059 151.131,430.637 151.04,430.212 
			150.952,429.782 150.867,429.348 150.785,428.909 150.707,428.467 150.632,428.02 150.492,427.113 150.366,426.19 150.252,425.25 
			150.153,424.293 150.066,423.318 149.993,422.327 149.933,421.319 149.886,420.294 149.853,419.252 149.833,418.194 
			149.826,417.118 149.826,298.67 149.828,298.457 149.834,298.243 149.843,298.03 149.856,297.816 149.872,297.603 
			149.893,297.391 149.917,297.179 149.944,296.967 149.975,296.755 150.01,296.545 150.049,296.335 150.091,296.125 
			150.137,295.917 150.186,295.709 150.239,295.502 150.295,295.296 150.355,295.091 150.419,294.887 150.486,294.684 
			150.557,294.482 150.631,294.282 150.708,294.083 150.789,293.885 150.873,293.689 150.961,293.494 151.052,293.301 
			151.146,293.109 151.244,292.919 151.345,292.731 151.449,292.544 151.556,292.36 151.667,292.177 151.78,291.996 
			151.897,291.817 152.017,291.64 152.14,291.466 152.266,291.293 152.394,291.123 152.526,290.955 152.661,290.789 
			152.798,290.625 152.939,290.464 153.082,290.305 153.227,290.149 153.376,289.996 153.527,289.845 153.68,289.696 
			153.837,289.55 153.995,289.407 154.156,289.267 154.32,289.13 154.486,288.995 154.654,288.863 154.824,288.735 154.997,288.609 
			155.172,288.486 155.348,288.366 155.527,288.249 155.708,288.136 155.891,288.025 156.076,287.918 156.262,287.814 
			156.45,287.713 156.64,287.615 156.832,287.521 157.025,287.43 157.22,287.342 157.416,287.258 157.614,287.177 157.813,287.099 
			158.014,287.025 158.215,286.955 158.418,286.888 158.622,286.824 158.827,286.764 159.033,286.708 159.24,286.655 
			159.448,286.605 159.656,286.56 159.866,286.518 160.076,286.479 160.287,286.444 160.498,286.413 160.71,286.385 
			160.922,286.362 161.135,286.341 161.348,286.325 161.561,286.312 161.774,286.303 161.988,286.297 162.201,286.295 
			587.799,286.295 588.012,286.297 588.226,286.303 588.439,286.312 588.652,286.325 588.865,286.341 589.078,286.362 
			589.29,286.385 589.502,286.413 589.713,286.444 589.924,286.479 590.134,286.518 590.344,286.56 590.552,286.605 590.76,286.655 
			590.967,286.708 591.173,286.764 591.378,286.824 591.582,286.888 591.785,286.955 591.987,287.025 592.187,287.099 
			592.386,287.177 592.584,287.258 592.78,287.342 592.975,287.43 593.168,287.521 593.36,287.615 593.55,287.713 593.738,287.814 
			593.924,287.918 594.109,288.025 594.292,288.136 594.473,288.249 594.652,288.366 594.828,288.486 595.003,288.609 
			595.176,288.735 595.346,288.863 595.514,288.995 595.68,289.13 595.844,289.267 596.005,289.407 596.163,289.55 596.32,289.696 
			596.473,289.845 596.624,289.996 596.773,290.149 596.918,290.305 597.061,290.464 597.202,290.625 597.339,290.789 
			597.474,290.955 597.606,291.123 597.734,291.293 597.86,291.466 597.983,291.64 598.103,291.817 598.22,291.996 598.333,292.177 
			598.444,292.36 598.551,292.544 598.655,292.731 598.756,292.919 598.854,293.109 598.948,293.301 599.039,293.494 
			599.127,293.689 599.211,293.885 599.292,294.083 599.369,294.282 599.443,294.482 599.514,294.684 599.581,294.887 
			599.645,295.091 599.705,295.296 599.761,295.502 599.814,295.709 599.863,295.917 599.909,296.125 599.951,296.335 
			599.99,296.545 600.025,296.755 600.056,296.967 600.083,297.179 600.107,297.391 600.128,297.603 600.144,297.816 
			600.157,298.03 600.166,298.243 600.172,298.457 600.174,298.67 600.174,417.118 600.167,418.194 600.147,419.252 
			600.114,420.294 600.067,421.319 600.007,422.327 599.934,423.318 599.847,424.293 599.747,425.25 599.634,426.19 
			599.508,427.113 599.368,428.02 599.293,428.467 599.215,428.909 599.133,429.348 599.048,429.782 598.96,430.212 
			598.869,430.637 598.774,431.059 598.676,431.476 598.574,431.889 598.469,432.298 598.361,432.702 598.25,433.102 
			598.135,433.498 598.016,433.89 597.895,434.278 597.77,434.661 597.642,435.04 597.51,435.415 597.376,435.785 597.238,436.152 
			597.096,436.514 596.951,436.872 596.803,437.225 596.652,437.575 596.497,437.92 596.339,438.261 596.177,438.598 
			596.013,438.93 595.844,439.258 595.673,439.583 595.498,439.902 595.32,440.218 595.139,440.529 594.954,440.836 
			594.766,441.139 594.574,441.438 594.38,441.732 594.182,442.022 593.98,442.308 593.776,442.59 593.567,442.867 593.356,443.14 
			593.141,443.409 592.923,443.674 592.702,443.934 592.477,444.191 592.249,444.443 592.018,444.69 591.783,444.934 
			591.545,445.173 591.304,445.408 591.059,445.639 590.811,445.866 590.56,446.088 590.305,446.306 590.047,446.52 589.786,446.73 
			589.521,446.935 589.253,447.136 588.982,447.333 588.707,447.526 588.429,447.715 588.148,447.899 587.863,448.079 
			587.575,448.255 587.284,448.426 586.99,448.593 586.692,448.756 586.39,448.915 586.086,449.07 585.778,449.22 585.467,449.366 
			585.152,449.508 584.834,449.646 584.513,449.779 584.188,449.908 583.86,450.033 583.529,450.154 583.195,450.271 
			582.857,450.383 582.516,450.491 582.171,450.595 581.823,450.694 581.472,450.789 581.117,450.881 580.76,450.967 
			580.398,451.05 580.034,451.128 579.666,451.202 579.295,451.272 578.92,451.338 578.543,451.399 578.161,451.457 
			577.777,451.509 577.389,451.558 576.998,451.603 576.603,451.643 576.206,451.679 575.805,451.711 575.4,451.738 
			574.992,451.761 574.581,451.781 574.167,451.795 573.749,451.806 573.328,451.812 572.903,451.814 		"/>
	</g>
	<g id="POLYLINE_31_">
		
			<polyline fill="none" stroke="#00B9D2" stroke-width="2.75" stroke-linecap="round" stroke-linejoin="round" stroke-miterlimit="10" points="
			149.826,298.67 375,298.67 600.174,298.67 		"/>
	</g>
	<g id="POLYLINE_30_">
		
			<rect x="177.097" y="451.814" fill="none" stroke="#00B9D2" stroke-width="2.75" stroke-linecap="round" stroke-linejoin="round" stroke-miterlimit="10" width="395.807" height="11.89"/>
	</g>
</g>
<g id="AG-OUTLINE">
	<g id="POLYLINE_126_">
		
			<polygon fill="none" stroke="#00B9D2" stroke-width="3.5" stroke-linecap="round" stroke-linejoin="round" stroke-miterlimit="10" points="
			572.903,451.814 573.328,451.812 573.749,451.806 574.167,451.795 574.581,451.781 574.992,451.761 575.4,451.738 
			575.805,451.711 576.206,451.679 576.603,451.643 576.998,451.603 577.389,451.558 577.777,451.509 578.161,451.457 
			578.543,451.399 578.92,451.338 579.295,451.272 579.666,451.202 580.034,451.128 580.398,451.05 580.76,450.967 581.117,450.881 
			581.472,450.789 581.823,450.694 582.171,450.595 582.516,450.491 582.857,450.383 583.195,450.271 583.529,450.154 
			583.86,450.033 584.188,449.908 584.513,449.779 584.834,449.646 585.152,449.508 585.467,449.366 585.778,449.22 586.086,449.07 
			586.39,448.915 586.692,448.756 586.99,448.593 587.284,448.426 587.575,448.255 587.863,448.079 588.148,447.899 
			588.429,447.715 588.707,447.526 588.982,447.333 589.253,447.136 589.521,446.935 589.786,446.73 590.047,446.52 
			590.305,446.306 590.56,446.088 590.811,445.866 591.059,445.639 591.304,445.408 591.545,445.173 591.783,444.934 
			592.018,444.69 592.249,444.443 592.477,444.191 592.702,443.934 592.923,443.674 593.141,443.409 593.356,443.14 
			593.567,442.867 593.776,442.59 593.98,442.308 594.182,442.022 594.38,441.732 594.574,441.438 594.766,441.139 594.954,440.836 
			595.139,440.529 595.32,440.218 595.498,439.902 595.673,439.583 595.844,439.258 596.013,438.93 596.177,438.598 
			596.339,438.261 596.497,437.92 596.652,437.575 596.803,437.225 596.951,436.872 597.096,436.514 597.238,436.152 
			597.376,435.785 597.51,435.415 597.642,435.04 597.77,434.661 597.895,434.278 598.016,433.89 598.135,433.498 598.25,433.102 
			598.361,432.702 598.469,432.298 598.574,431.889 598.676,431.476 598.774,431.059 598.869,430.637 598.96,430.212 
			599.048,429.782 599.133,429.348 599.215,428.909 599.293,428.467 599.368,428.02 599.508,427.113 599.634,426.19 599.747,425.25 
			599.847,424.293 599.934,423.318 600.007,422.327 600.067,421.319 600.114,420.294 600.147,419.252 600.167,418.194 
			600.174,417.118 600.174,298.67 600.173,298.533 600.171,298.396 600.167,298.257 600.161,298.119 600.154,297.979 
			600.146,297.839 600.135,297.699 600.124,297.558 600.11,297.417 600.095,297.275 600.078,297.133 600.059,296.991 
			600.039,296.848 600.017,296.705 599.993,296.562 599.967,296.418 599.94,296.275 599.91,296.131 599.879,295.987 
			599.846,295.842 599.811,295.698 599.775,295.554 599.736,295.409 599.696,295.265 599.654,295.121 599.61,294.977 
			599.563,294.833 599.516,294.689 599.466,294.545 599.414,294.401 599.36,294.258 599.305,294.115 599.247,293.972 
			599.188,293.83 599.126,293.688 599.063,293.547 598.998,293.406 598.931,293.266 598.862,293.126 598.791,292.986 
			598.718,292.848 598.644,292.71 598.567,292.573 598.489,292.436 598.408,292.301 598.326,292.166 598.242,292.032 
			598.156,291.898 598.069,291.766 597.979,291.635 597.888,291.505 597.795,291.376 597.7,291.248 597.604,291.121 
			597.506,290.995 597.406,290.87 597.304,290.747 597.201,290.625 597.096,290.504 596.99,290.384 596.882,290.266 
			596.773,290.149 596.662,290.034 596.549,289.92 596.435,289.807 596.32,289.696 596.203,289.587 596.085,289.479 
			595.965,289.372 595.844,289.268 595.722,289.164 595.599,289.063 595.474,288.963 595.348,288.865 595.221,288.768 
			595.093,288.674 594.964,288.581 594.834,288.489 594.703,288.4 594.57,288.312 594.437,288.227 594.303,288.143 594.168,288.06 
			594.033,287.98 593.896,287.902 593.759,287.825 593.621,287.751 593.482,287.678 593.343,287.607 593.203,287.538 
			593.063,287.471 592.922,287.406 592.781,287.342 592.639,287.281 592.496,287.222 592.354,287.164 592.211,287.109 
			592.068,287.055 591.924,287.003 591.78,286.953 591.636,286.905 591.492,286.859 591.348,286.815 591.204,286.773 
			591.059,286.733 590.915,286.694 590.771,286.657 590.626,286.623 590.482,286.59 590.338,286.559 590.194,286.529 
			590.05,286.502 589.907,286.476 589.764,286.452 589.621,286.43 589.478,286.41 589.336,286.391 589.193,286.374 589.052,286.359 
			588.911,286.345 588.77,286.333 588.629,286.323 588.49,286.315 588.35,286.308 588.212,286.302 588.073,286.298 587.936,286.296 
			587.799,286.295 375,286.295 162.201,286.295 162.064,286.296 161.927,286.298 161.788,286.302 161.65,286.308 161.51,286.315 
			161.371,286.323 161.23,286.333 161.089,286.345 160.948,286.359 160.807,286.374 160.665,286.391 160.522,286.41 160.379,286.43 
			160.236,286.452 160.093,286.476 159.95,286.502 159.806,286.529 159.662,286.559 159.518,286.59 159.374,286.623 
			159.229,286.657 159.085,286.694 158.941,286.733 158.796,286.773 158.652,286.815 158.508,286.859 158.364,286.905 
			158.22,286.953 158.076,287.003 157.932,287.055 157.789,287.109 157.646,287.164 157.504,287.222 157.361,287.281 
			157.219,287.342 157.078,287.406 156.937,287.471 156.797,287.538 156.657,287.607 156.518,287.678 156.379,287.751 
			156.241,287.825 156.104,287.902 155.967,287.98 155.832,288.06 155.697,288.143 155.563,288.227 155.43,288.312 155.297,288.4 
			155.166,288.489 155.036,288.581 154.907,288.674 154.779,288.768 154.652,288.865 154.526,288.963 154.401,289.063 
			154.278,289.164 154.156,289.268 154.035,289.372 153.915,289.479 153.797,289.587 153.68,289.696 153.565,289.807 
			153.451,289.92 153.338,290.034 153.227,290.149 153.118,290.266 153.01,290.384 152.904,290.504 152.799,290.625 
			152.696,290.747 152.594,290.87 152.494,290.995 152.396,291.121 152.3,291.248 152.205,291.376 152.112,291.505 152.021,291.635 
			151.931,291.766 151.844,291.898 151.758,292.032 151.674,292.166 151.592,292.301 151.511,292.436 151.433,292.573 
			151.356,292.71 151.282,292.848 151.209,292.986 151.138,293.126 151.069,293.266 151.002,293.406 150.937,293.547 
			150.874,293.688 150.812,293.83 150.753,293.972 150.695,294.115 150.64,294.258 150.586,294.401 150.534,294.545 
			150.484,294.689 150.437,294.833 150.39,294.977 150.346,295.121 150.304,295.265 150.264,295.409 150.225,295.554 
			150.189,295.698 150.154,295.842 150.121,295.987 150.09,296.131 150.06,296.275 150.033,296.418 150.007,296.562 
			149.983,296.705 149.961,296.848 149.941,296.991 149.922,297.133 149.905,297.275 149.89,297.417 149.876,297.558 
			149.865,297.699 149.854,297.839 149.846,297.979 149.839,298.119 149.833,298.257 149.829,298.396 149.827,298.533 
			149.826,298.67 149.826,417.118 149.833,418.194 149.853,419.252 149.886,420.294 149.933,421.319 149.993,422.327 
			150.066,423.318 150.153,424.293 150.252,425.25 150.366,426.19 150.492,427.113 150.632,428.02 150.707,428.467 150.785,428.909 
			150.867,429.348 150.952,429.782 151.04,430.212 151.131,430.637 151.226,431.059 151.324,431.476 151.426,431.889 
			151.531,432.298 151.639,432.702 151.75,433.102 151.865,433.498 151.984,433.89 152.105,434.278 152.23,434.661 152.358,435.04 
			152.49,435.415 152.624,435.785 152.762,436.152 152.904,436.514 153.049,436.872 153.197,437.225 153.348,437.575 
			153.503,437.92 153.661,438.261 153.823,438.598 153.988,438.93 154.156,439.258 154.327,439.583 154.502,439.902 154.68,440.218 
			154.861,440.529 155.046,440.836 155.234,441.139 155.426,441.438 155.62,441.732 155.818,442.022 156.02,442.308 156.225,442.59 
			156.433,442.867 156.644,443.14 156.859,443.409 157.077,443.674 157.298,443.934 157.523,444.191 157.751,444.443 
			157.982,444.69 158.217,444.934 158.455,445.173 158.696,445.408 158.941,445.639 159.189,445.866 159.44,446.088 
			159.695,446.306 159.953,446.52 160.214,446.73 160.479,446.935 160.747,447.136 161.018,447.333 161.293,447.526 
			161.571,447.715 161.852,447.899 162.137,448.079 162.425,448.255 162.716,448.426 163.01,448.593 163.308,448.756 
			163.61,448.915 163.914,449.07 164.222,449.22 164.533,449.366 164.848,449.508 165.166,449.646 165.487,449.779 165.812,449.908 
			166.14,450.033 166.471,450.154 166.805,450.271 167.143,450.383 167.484,450.491 167.829,450.595 168.177,450.694 
			168.528,450.789 168.883,450.881 169.24,450.967 169.602,451.05 169.966,451.128 170.334,451.202 170.705,451.272 171.08,451.338 
			171.457,451.399 171.839,451.457 172.223,451.509 172.611,451.558 173.002,451.603 173.397,451.643 173.794,451.679 
			174.195,451.711 174.6,451.738 175.008,451.761 175.419,451.781 175.833,451.795 176.251,451.806 176.672,451.812 
			177.097,451.814 177.097,463.705 572.903,463.705 		"/>
	</g>
</g>
</svg>
